<svg width="300" height="300" viewBox="0 0 300 300" fill="none" xmlns="http://www.w3.org/2000/svg">
<path d="M106 0C102.686 0 100 2.68629 100 6V94C100 97.3137 97.3137 100 94 100H6C2.68629 100 0 102.686 0 106V194C0 197.314 2.68629 200 6 200H94C97.3137 200 100 202.686 100 206V294C100 297.314 102.686 300 106 300H194C197.314 300 200 297.314 200 294V206C200 202.686 202.686 200 206 200H294C297.314 200 300 197.314 300 194V106C300 102.686 297.314 100 294 100H206C202.686 100 200 97.3137 200 94V6C200 2.68629 197.314 0 194 0H106Z" fill="#E20074"/>
</svg>
