<?xml version="1.0" ?>
<!-- Uploaded to: SVG Repo, www.svgrepo.com, Generator: SVG Repo Mixer Tools -->
<svg fill="#000000" width="800px" height="800px" viewBox="0 0 50 50" xmlns="http://www.w3.org/2000/svg">
<g id="Solid">
<path d="M36,48H26V37.99333H36ZM14,48H24V37.99333H14ZM45,37.99333H38V48h7a3.00428,3.00428,0,0,0,3-3.002V40.99533A3.00428,3.00428,0,0,0,45,37.99333Zm-33,0H5a3.00428,3.00428,0,0,0-3,3.002V44.998A3.00428,3.00428,0,0,0,5,48h7ZM31.46832,26.28314l2.73407,2.73553,2.73407-2.73553-2.73407-2.736ZM25,5.972a21.91139,21.91139,0,0,1,6.11176.87088,1.04611,1.04611,0,0,1-.28168-.70085,3.01437,3.01437,0,0,0-3-3.002,1.039,1.039,0,0,1-.71387-.28828,3.05584,3.05584,0,0,0-4.22461-.0083,1.04285,1.04285,0,0,1-.72168.29658,3.01524,3.01524,0,0,0-3,3.002,1.03819,1.03819,0,0,1-.27923.70017A21.91127,21.91127,0,0,1,25,5.972ZM45,27.98667V35.992H5V27.98667A20.04679,20.04679,0,0,1,19.08691,8.86743C17.89606,10.57981,17,13.13968,17,16.97934a1,1,0,1,0,2,0c0-5.60194,2.06213-7.91464,3.77039-8.87377.405-.04526.81768-.061,1.22961-.08154v7.63558a1,1,0,1,0,2,0V8.024c.41113.02052.82306.03616,1.22742.08123C28.93744,9.06409,31,11.37642,31,16.97934a1,1,0,1,0,2,0c0-3.83966-.89606-6.39947-2.08691-8.11185A20.04671,20.04671,0,0,1,45,27.98667Zm-3.86816-4.48639a.99918.99918,0,0,0-1.41407,0L38.35059,24.8682l-2.7342-2.73614,1.367-1.368a1.00023,1.00023,0,1,0-1.41406-1.415L34.20239,20.717l-1.07055-1.07134a1.00023,1.00023,0,1,0-1.41407,1.415l1.07062,1.07139-2.73419,2.7362-1.0708-1.07139a1.00022,1.00022,0,0,0-1.41406,1.415l1.0708,1.07139L27.27344,27.651a1.00022,1.00022,0,1,0,1.41406,1.415l1.36682-1.36779,2.73395,2.7354-1.36737,1.3681a1.00076,1.00076,0,0,0,0,1.415,1.011,1.011,0,0,0,1.41406,0l1.36743-1.36823,1.071,1.07164a1.01147,1.01147,0,0,0,1.41406,0,1.00078,1.00078,0,0,0,0-1.415l-1.07092-1.07152,2.73388-2.7354,1.07044,1.07121a1.01562,1.01562,0,0,0,1.41406,0,1.00077,1.00077,0,0,0,0-1.415l-1.07037-1.07115,1.36725-1.368A1.00079,1.00079,0,0,0,41.13184,23.50028Z"/>
</g>
</svg>