<svg xmlns="http://www.w3.org/2000/svg" xmlns:xlink="http://www.w3.org/1999/xlink" viewBox="0,0,256,256" width="500px" height="500px" fill-rule="nonzero"><g transform="translate(25.6,25.6) scale(0.8,0.8)"><g fill="none" fill-rule="nonzero" stroke="none" stroke-width="none" stroke-linecap="butt" stroke-linejoin="none" stroke-miterlimit="10" stroke-dasharray="" stroke-dashoffset="0" font-family="none" font-weight="none" font-size="none" text-anchor="none" style="mix-blend-mode: normal"><path transform="scale(5.12,5.12)" d="M25.61914,1.25977l23,17.95117c0.43,0.34 0.50992,0.9682 0.16992,1.4082c-0.2,0.25 -0.48906,0.38086 -0.78906,0.38086c-0.22,0 -0.42914,-0.07094 -0.61914,-0.21094l-1.38086,-1.07812v26.28906c0,0.55 -0.45,1 -1,1h-14v-18h-12v18h-14c-0.55,0 -1,-0.45 -1,-1v-26.28906l-1.38086,1.07812c-0.44,0.34 -1.0682,0.26008 -1.4082,-0.16992c-0.34,-0.44 -0.26008,-1.0682 0.16992,-1.4082l23,-17.95117c0.185,-0.14 0.40164,-0.20898 0.61914,-0.20898c0.2175,0 0.43414,0.06898 0.61914,0.20898zM41,5v5.73047l-6,-4.67969v-1.05078z" id="strokeMainSVG" fill="#000000" stroke="#000000" stroke-width="5" stroke-linejoin="round"></path><g transform="scale(5.12,5.12)" fill="#e1ff00" stroke="none" stroke-width="1" stroke-linejoin="miter"><path d="M25,1.05078c-0.2175,0 -0.43414,0.06898 -0.61914,0.20898l-23,17.95117c-0.43,0.34 -0.50992,0.9682 -0.16992,1.4082c0.34,0.43 0.9682,0.50992 1.4082,0.16992l1.38086,-1.07812v26.28906c0,0.55 0.45,1 1,1h14v-18h12v18h14c0.55,0 1,-0.45 1,-1v-26.28906l1.38086,1.07812c0.19,0.14 0.39914,0.21094 0.61914,0.21094c0.3,0 0.58906,-0.13086 0.78906,-0.38086c0.34,-0.44 0.26008,-1.0682 -0.16992,-1.4082l-23,-17.95117c-0.185,-0.14 -0.40164,-0.20898 -0.61914,-0.20898zM35,5v1.05078l6,4.67969v-5.73047z"></path></g></g></g></svg>