<svg width="200" height="200" viewBox="0 0 200 200" fill="none" xmlns="http://www.w3.org/2000/svg">
<path d="M27 163.5C31 144.5 26 81.0003 47.5 32.0003C47.5 32.0003 144 31.9993 156.5 32.0003C154.75 46.0009 177.5 94.5003 172.5 163.5C149.697 167.264 137.783 170.191 106 165.5C106 165.5 105.5 125.5 101 125.5C96.5 125.5 97 165.5 97 165.5C74.5 170.5 38.2 169.1 27 163.5Z" fill="#F73498" stroke="#333" stroke-width="6" stroke-linejoin="round"/>
<path d="M43 46C88.3619 53.6847 113.479 53.795 158 47.4334" stroke="#333" stroke-width="6" stroke-linejoin="round"/>
<path d="M86.5 88.5C86.4998 68 93 50 101 41.5C109 45.5 110 53.5 114 60C113.167 67.8333 113.1 84.5 119.5 88.5" stroke="#666" stroke-width="6" stroke-linejoin="round"/>
</svg>
