<?xml version="1.0" encoding="UTF-8"?>
<svg xmlns="http://www.w3.org/2000/svg" version="1.1" viewBox="0 0 156 156">
  <defs>
    <style>
      .cls-1 {
        fill: #eaeaea;
      }

      .cls-2 {
        fill: #e6e6e6;
      }

      .cls-3 {
        fill: #3b82c5;
      }

      .cls-4 {
        fill: #f7f7f7;
      }

      .cls-5 {
        fill: #ededed;
      }
    </style>
  </defs>
  <!-- Generator: Adobe Illustrator 28.7.2, SVG Export Plug-In . SVG Version: 1.2.0 Build 154)  -->
  <g>
    <g id="_레이어_1" data-name="레이어_1">
      <path class="cls-3" d="M11.3,60.4c.7-16.6,7.6-29.9,23.2-36.8,15-6.7,28.6-3.1,40.2,8.2,2.4,2.3,3.5,3,6.4.3,16.5-15.2,35.9-15.6,51.2-1.4,14.5,13.5,16.7,39,4.3,55.1-11.9,15.5-27.1,27.5-42.5,39.3-17.7,13.6-14,14.3-32.1.3-13.5-10.5-26.6-21.5-38.3-34.1-8.1-8.7-12.7-18.8-12.4-31Z"/>
      <path class="cls-1" d="M15.6,101.5c-.5,0-1,.3-1.3-.3-.2-.4-.2-.8,0-1.2.1-.2.5-.6.6,0,.2.8.5.5.9.3.2-.1.4-.6.6-.2.2.3.7.6.6,1.2-.1.4-.4.5-.8.4-.2,0-.4,0-.6,0Z"/>
      <path class="cls-1" d="M18.8,100.8c0,.2,0,.3,0,.5-.4.1-.7.4-1.2.2.5-.6-.5-.9-.3-1.5,0-.2.2-.3.4-.4.5,0,.1.3.2.4.2.3.5.5.7.7Z"/>
      <path class="cls-2" d="M12.7,101.1c-.2.1-.5.5-.7,0-.1-.4-.4-.9-.2-1.4,0-.2.4,0,.5.1.1.3.2.6.3.9,0,0,.1.1.1.2,0,0,0,.1,0,.1Z"/>
      <path class="cls-4" d="M12.7,101.1c0,0,0-.2,0-.3,0-.3.2-.5.2-.8-.2.7,1.2.4.8,1.1-.2.4-.7-.1-1,0Z"/>
      <path class="cls-5" d="M114.8-37c1.3,0,2.7.9,3.7,2.4.5.7.7.7,1.2,0,2-2.5,4.6-3.1,6.9-1.6,2.4,1.5,3.3,4.9,2,7.6-.5,1.1-1.3,1.9-2.1,2.7-2.1,2-4.3,3.8-6.6,5.6-.4.3-.8.6-1.3.2-2.8-2.2-5.6-4.3-8-7-2.2-2.5-2.1-6.1.1-8.3,1-1,2.1-1.5,4.1-1.5Z"/>
    </g>
  </g>
</svg>