<?xml version="1.0" encoding="UTF-8"?>
<svg id="_레이어_2" data-name="레이어_2" xmlns="http://www.w3.org/2000/svg" viewBox="0 0 77.25 77.23">
  <defs>
    <style>
      .cls-1 {
        fill: #898989;
      }
    </style>
  </defs>
  <g id="_레이어_1-2" data-name="레이어_1">
    <path class="cls-1" d="M47.67,56.17c-2.61,2.58-5.22,5.15-7.82,7.74-2.55,2.54-5.05,5.13-7.64,7.62-5.37,5.17-11.73,6.93-18.88,4.84-7.15-2.09-11.51-7.04-12.94-14.33-1.2-6.15.34-11.76,4.65-16.31,5.19-5.48,10.55-10.82,16.01-16.03,7.3-6.97,19-6.75,26.14.3,1.97,1.95,2.1,4.83.3,6.78-2.1,2.27-4.91,2.46-7.12.49-4.16-3.72-9.21-3.59-13.16.34-4.76,4.74-9.51,9.49-14.26,14.24-2.81,2.81-3.71,6.14-2.33,9.88,2.12,5.74,9.71,7.37,14.18,3.06,3.14-3.02,6.19-6.13,9.25-9.24.57-.58,1.04-.76,1.86-.47,3.77,1.32,7.64,1.6,11.75,1.1Z"/>
    <path class="cls-1" d="M29.62,20.98c2.47-2.44,4.94-4.88,7.4-7.32,2.69-2.68,5.36-5.39,8.06-8.05,7.19-7.09,18.56-7.5,25.91-.96,7.69,6.86,8.48,18.93,1.38,26.6-5.45,5.89-11.17,11.56-17.1,16.98-6.86,6.27-18.43,5.69-25.05-.85-2.17-2.14-2.33-4.99-.4-7.04,2.14-2.27,4.84-2.36,7.21-.25,3.92,3.51,9.17,3.34,12.91-.41,4.89-4.9,9.8-9.76,14.67-14.68,4.17-4.22,3.21-11.24-1.84-13.95-3.51-1.88-7.71-1.25-10.71,1.7-3,2.94-5.95,5.92-8.89,8.92-.57.59-1.04.73-1.85.45-3.77-1.3-7.64-1.62-11.58-.86-.04-.09-.09-.19-.13-.28Z"/>
  </g>
</svg>