<?xml version="1.0" encoding="UTF-8"?>
<svg id="Layer_1" xmlns="http://www.w3.org/2000/svg" version="1.1" viewBox="0 0 12 12">
  <!-- Generator: Adobe Illustrator 29.2.0, SVG Export Plug-In . SVG Version: 2.1.0 Build 108)  -->
  <defs>
    <style>
      .st0 {
        fill: #32285e;
      }

      .st1 {
        fill: #fefefe;
      }

      .st2 {
        fill: #698bcc;
      }
    </style>
  </defs>
  <path class="st0" d="M3.08.91c.87-.1,1.74.26,2.36.87.09.09.48.63.52.64.06.01.48-.56.58-.66,1.45-1.41,3.57-1.04,4.48.74,1.68,3.26-1.71,6.38-4.22,7.92-.16.1-.63.4-.78.42-.11.02-.21-.05-.31-.1-1.78-.86-4.41-3.2-5.01-5.12S.92,1.15,3.08.91ZM3.16,1.55c-1.76.21-2.28,2.47-1.82,3.93.52,1.65,2.96,3.85,4.49,4.59.06.03.11.08.19.06,2.25-1.34,5.65-3.93,4.58-6.96-.66-1.89-2.68-2.17-3.9-.6-.16.2-.43.81-.63.86-.39.09-.57-.53-.78-.81-.49-.66-1.28-1.16-2.13-1.06Z"/>
  <path class="st2" d="M3.16,1.55c.86-.1,1.64.4,2.13,1.06.21.28.39.9.78.81.2-.04.47-.65.63-.86,1.22-1.57,3.24-1.28,3.9.6,1.06,3.03-2.33,5.62-4.58,6.96-.08.03-.13-.03-.19-.06-1.53-.74-3.97-2.95-4.49-4.59-.46-1.45.05-3.72,1.82-3.93ZM6.94,5.36v-1.02c0-.18-.32-.25-.46-.26-.27-.02-.91-.03-1.16.01-.1.02-.31.15-.31.25v1.02h-.98c-.1,0-.27.16-.29.27-.03.15-.03,1.33,0,1.46.03.11.22.24.32.24h.94v1.02s.11.16.14.18c.18.12,1.44.12,1.63.02.04-.02.16-.17.16-.2v-1.02h.94c.11,0,.29-.13.32-.24.04-.13.04-1.31,0-1.46-.02-.11-.19-.27-.29-.27h-.98Z"/>
  <path class="st0" d="M6.94,5.36h.98c.1,0,.27.16.29.27.03.15.03,1.33,0,1.46-.03.11-.22.24-.32.24h-.94v1.02s-.12.17-.16.2c-.19.1-1.45.1-1.63-.02-.03-.02-.14-.16-.14-.18v-1.02h-.94c-.11,0-.29-.13-.32-.24-.04-.13-.04-1.31,0-1.46.02-.11.19-.27.29-.27h.98v-1.02c0-.1.21-.23.31-.25.25-.04.89-.03,1.16-.01.14.01.46.08.46.26v1.02ZM6.3,4.71h-.64v1.07s-.16.22-.18.22h-1.11v.68h1.11s.18.19.18.22v1.07h.64v-1.07s.16-.22.18-.22h1.11v-.68h-1.11s-.18-.19-.18-.22v-1.07Z"/>
  <path class="st1" d="M6.3,4.71v1.07s.16.22.18.22h1.11v.68h-1.11s-.18.19-.18.22v1.07h-.64v-1.07s-.16-.22-.18-.22h-1.11v-.68h1.11s.18-.19.18-.22v-1.07h.64Z"/>
</svg>