<?xml version="1.0" encoding="UTF-8"?>
<svg id="Ebene_1" data-name="Ebene 1" xmlns="http://www.w3.org/2000/svg" viewBox="0 0 22 16">
  <defs>
    <style>
      .cls-1 {
        fill: #ffd500;
      }

      .cls-1, .cls-2 {
        stroke-width: 0px;
      }

      .cls-2 {
        fill: #fff;
      }

      .cls-3 {
        fill: none;
        stroke: #000;
        stroke-linecap: round;
        stroke-linejoin: round;
        stroke-width: 2px;
      }
    </style>
  </defs>
  <rect class="cls-2" x="4.47" y="11.72" width="3.39" height="3.07"/>
  <rect class="cls-2" x="13.31" y="11.47" width="3.39" height="3.07"/>
  <rect class="cls-2" x="1.2" y="1.33" width="18.33" height="5.89"/>
  <polygon class="cls-1" points="19.75 13.04 14.55 11.26 10.5 13.33 6.4 11 1 13 1.21 6.28 10.8 6.86 20.58 7.55 19.75 13.04"/>
  <path class="cls-3" d="M7,1v6"/>
  <path class="cls-3" d="M14,1v6"/>
  <path class="cls-3" d="M1,7h19.6"/>
  <path class="cls-3" d="M17,13h3s.5-1.7.8-2.8c.1-.4.2-.8.2-1.2s-.1-.8-.2-1.2l-1.4-5c-.3-1-1.3-1.8-2.4-1.8H3c-1.1,0-2,.9-2,2v10h3"/>
  <circle class="cls-3" cx="6" cy="13" r="2"/>
  <path class="cls-3" d="M8,13h5"/>
  <circle class="cls-3" cx="15" cy="13" r="2"/>
</svg>