<?xml version="1.0" encoding="utf-8"?>
<!-- Generator: Adobe Illustrator 27.9.1, SVG Export Plug-In . SVG Version: 6.00 Build 0)  -->
<svg version="1.1" id="Ebene_1" xmlns="http://www.w3.org/2000/svg" xmlns:xlink="http://www.w3.org/1999/xlink" x="0px" y="0px"
	 viewBox="0 0 30.1 22.9" style="enable-background:new 0 0 30.1 22.9;" xml:space="preserve">
<style type="text/css">
	.st0{fill:#FFFFFF;}
	.st1{fill:#FFD500;}
	.st2{fill:none;stroke:#000000;stroke-width:2;stroke-linecap:round;stroke-linejoin:round;}
</style>
<image style="overflow:visible;enable-background:new    ;" width="33" height="27" xlink:href="76B1F63.png"  transform="matrix(0.967 0 0 0.967 -1.6438 -1.1236)">
</image>
<rect x="8" y="14.9" class="st0" width="3.4" height="3.1"/>
<rect x="16.9" y="14.7" class="st0" width="3.4" height="3.1"/>
<rect x="4.8" y="4.5" class="st0" width="18.3" height="5.9"/>
<polygon class="st1" points="23.3,16.2 18.1,14.4 14.1,16.5 10,14.2 4.6,16.2 4.8,9.5 14.4,10 24.1,10.7 "/>
<g>
	<g>
		<path class="st2" d="M10.6,4.2v6"/>
		<path class="st2" d="M17.6,4.2v6"/>
		<path class="st2" d="M4.6,10.2h19.6"/>
		<path class="st2" d="M20.6,16.2h3c0,0,0.5-1.7,0.8-2.8c0.1-0.4,0.2-0.8,0.2-1.2s-0.1-0.8-0.2-1.2L23,6c-0.3-1-1.3-1.8-2.4-1.8h-14
			c-1.1,0-2,0.9-2,2v10h3"/>
		<circle class="st2" cx="9.6" cy="16.2" r="2"/>
		<path class="st2" d="M11.6,16.2h5"/>
		<circle class="st2" cx="18.6" cy="16.2" r="2"/>
	</g>
</g>
</svg>
