<?xml version="1.0" encoding="UTF-8"?>
<svg id="Ebene_1" data-name="Ebene 1" xmlns="http://www.w3.org/2000/svg" viewBox="0 0 22 14">
  <defs>
    <style>
      .cls-1 {
        fill: #ffd500;
      }

      .cls-1, .cls-2 {
        stroke-width: 0px;
      }

      .cls-2 {
        fill: #fff;
      }

      .cls-3 {
        fill: none;
        stroke: #000;
        stroke-linecap: round;
        stroke-linejoin: round;
        stroke-width: 2px;
      }
    </style>
  </defs>
  <rect class="cls-2" x="4.36" y="9.49" width="3.23" height="2.71"/>
  <polygon class="cls-1" points="20.75 11 11.45 11 6 9.46 .76 11 2.04 1.38 11.35 1.2 20.75 6.44 20.75 11"/>
  <rect class="cls-2" x="14.18" y="9.64" width="3.23" height="2.71"/>
  <path class="cls-3" d="M18,11h2c.6,0,1-.4,1-1v-3c0-.9-.7-1.7-1.5-1.9-1.8-.5-4.5-1.1-4.5-1.1,0,0-1.3-1.4-2.2-2.3-.5-.4-1.1-.7-1.8-.7h-7c-.6,0-1.1.4-1.4.9l-1.4,2.9c-.13.39-.2.79-.2,1.2v4c0,.6.4,1,1,1h2"/>
  <circle class="cls-3" cx="6" cy="11" r="2"/>
  <path class="cls-3" d="M8,11h6"/>
  <circle class="cls-3" cx="16" cy="11" r="2"/>
</svg>