<?xml version="1.0" encoding="utf-8"?>
<!-- Generator: Adobe Illustrator 27.9.1, SVG Export Plug-In . SVG Version: 6.00 Build 0)  -->
<svg version="1.1" id="Ebene_1" xmlns="http://www.w3.org/2000/svg" xmlns:xlink="http://www.w3.org/1999/xlink" x="0px" y="0px"
	 viewBox="0 0 28.5 21.1" style="enable-background:new 0 0 28.5 21.1;" xml:space="preserve">
<style type="text/css">
	.st0{fill:#FFFFFF;}
	.st1{fill:#FFD500;}
	.st2{fill:none;stroke:#000000;stroke-width:2;stroke-linecap:round;stroke-linejoin:round;}
</style>
<image style="overflow:visible;enable-background:new    ;" width="33" height="25" xlink:href="4D614CEF.png"  transform="matrix(0.9662 0 0 0.9662 -2.0483 -1.4372)">
</image>
<rect x="7.5" y="12.4" class="st0" width="3.2" height="2.7"/>
<polygon class="st1" points="23.9,13.9 14.6,13.9 9.1,12.4 3.9,13.9 5.2,4.3 14.5,4.1 23.9,9.3 "/>
<rect x="17.3" y="12.5" class="st0" width="3.2" height="2.7"/>
<g>
	<g>
		<path class="st2" d="M21.1,13.9h2c0.6,0,1-0.4,1-1v-3c0-0.9-0.7-1.7-1.5-1.9c-1.8-0.5-4.5-1.1-4.5-1.1s-1.3-1.4-2.2-2.3
			c-0.5-0.4-1.1-0.7-1.8-0.7h-7C6.5,3.9,6,4.3,5.7,4.8L4.3,7.7C4.2,8.1,4.1,8.5,4.1,8.9v4c0,0.6,0.4,1,1,1h2"/>
		<circle class="st2" cx="9.1" cy="13.9" r="2"/>
		<path class="st2" d="M11.1,13.9h6"/>
		<circle class="st2" cx="19.1" cy="13.9" r="2"/>
	</g>
</g>
</svg>
