<?xml version="1.0" encoding="UTF-8"?>
<svg id="Ebene_1" data-name="Ebene 1" xmlns="http://www.w3.org/2000/svg" viewBox="0 0 22 16">
  <defs>
    <style>
      .cls-1 {
        fill: #ffd500;
      }

      .cls-1, .cls-2 {
        stroke-width: 0px;
      }

      .cls-2 {
        fill: #fff;
      }

      .cls-3 {
        fill: none;
        stroke: #000;
        stroke-linecap: round;
        stroke-linejoin: round;
        stroke-width: 2px;
      }
    </style>
  </defs>
  <rect class="cls-2" x="4" y="11.55" width="3.82" height="2.65"/>
  <rect class="cls-2" x="14.09" y="11.55" width="3.82" height="2.65"/>
  <polygon class="cls-1" points="12.29 12.57 7.22 12.57 6.05 11.57 1.38 12.57 1.38 1.19 12.29 1.19 12.29 12.57"/>
  <polygon class="cls-1" points="21.21 13 13.38 11 13.67 4 19.85 5.89 21.21 13"/>
  <path class="cls-3" d="M4,13h-2c-.6,0-1-.4-1-1V2c0-.6.4-1,1-1h10c.6,0,1,.4,1,1v11"/>
  <path class="cls-3" d="M13,4h4l4,4v4c0,.6-.4,1-1,1h-2"/>
  <circle class="cls-3" cx="6" cy="13" r="2"/>
  <path class="cls-3" d="M14,13h-6"/>
  <circle class="cls-3" cx="16" cy="13" r="2"/>
</svg>