<?xml version="1.0" encoding="utf-8"?>
<!-- Generator: Adobe Illustrator 27.9.1, SVG Export Plug-In . SVG Version: 6.00 Build 0)  -->
<svg version="1.1" id="Ebene_1" xmlns="http://www.w3.org/2000/svg" xmlns:xlink="http://www.w3.org/1999/xlink" x="0px" y="0px"
	 viewBox="0 0 29.3 22.2" style="enable-background:new 0 0 29.3 22.2;" xml:space="preserve">
<style type="text/css">
	.st0{fill:#FFFFFF;}
	.st1{fill:#FFD500;}
	.st2{fill:none;stroke:#000000;stroke-width:2;stroke-linecap:round;stroke-linejoin:round;}
</style>
<image style="overflow:visible;enable-background:new    ;" width="33" height="27" xlink:href="278B854B.png"  transform="matrix(0.967 0 0 0.967 -1.8984 -1.0508)">
</image>
<rect x="7.3" y="14.8" class="st0" width="3.8" height="2.7"/>
<rect x="17.4" y="14.8" class="st0" width="3.8" height="2.7"/>
<polygon class="st1" points="15.6,15.8 10.5,15.8 9.4,14.8 4.7,15.8 4.7,4.4 15.6,4.4 "/>
<polygon class="st1" points="24.5,16.3 16.7,14.3 17,7.3 23.2,9.1 "/>
<g>
	<g>
		<path class="st2" d="M7.3,16.3h-2c-0.6,0-1-0.4-1-1v-10c0-0.6,0.4-1,1-1h10c0.6,0,1,0.4,1,1v11"/>
		<path class="st2" d="M16.3,7.3h4l4,4v4c0,0.6-0.4,1-1,1h-2"/>
		<circle class="st2" cx="9.3" cy="16.3" r="2"/>
		<path class="st2" d="M17.3,16.3h-6"/>
		<circle class="st2" cx="19.3" cy="16.3" r="2"/>
	</g>
</g>
</svg>
