<?xml version="1.0" encoding="UTF-8"?>
<svg id="Ebene_2" data-name="Ebene 2" xmlns="http://www.w3.org/2000/svg" viewBox="0 0 183.61 316.4">
  <defs>
    <style>
      .cls-1 {
        fill: #3f3b23;
        stroke: #000;
        stroke-miterlimit: 10;
        stroke-width: .25px;
      }
    </style>
  </defs>
  <g id="Eiche">
    <g>
      <path class="cls-1" d="m92.07.32c-.82,0-2.15.03-3.73.37-6.41,1.35-10.42,6.1-13.67,9.94-2.19,2.6-3.75,4.44-4.97,7.45-1.22,3.02-2.23,7.56-2.48,8.7-.71,3.17-.9,4.94-2.48,6.21-.41.33-1.39,1.01-3.73,1.24-4.02.4-6.1-1.11-11.18-2.48-4.07-1.1-6.21-1.68-8.7-1.24-4.81.84-7.7,4.86-8.7,6.21-3.34,4.53-3.58,9.38-3.73,12.42-.17,3.43.35,5.79,1.24,9.94,1.35,6.31,3.78,12.91,4.97,16.15.45,1.23.79,2.5,1.24,3.73.93,2.53,1.46,3.49,1.24,4.97-.07.49-.26,1.8-1.24,2.48-1.23.85-3,.25-3.73,0-9.49-3.22-15.62-4.6-17.39-4.97-5.83-1.2-7.99-.32-8.7,0-2.97,1.36-4.5,4.06-4.97,4.97-1.16,2.28-1.27,4.44-1.24,6.21.14,8.04,3.43,15.5,3.73,16.15,2.18,4.83,6.11,13.55,14.91,21.12,2.07,1.78,7.14,5.84,13.67,9.94,1.29.81,6.07,3.77,9.94,8.7.99,1.26,2.52,3.41,2.48,6.21-.01.81-.03,2.46-1.24,3.73-1.8,1.89-4.71,1.3-4.97,1.24-3.47-1.95-6.51-3.07-8.7-3.73-2.49-.75-4.02-.95-6.21-1.24-2-.26-2.84-.24-3.73,0-1.99.54-3.2,1.88-3.73,2.48-1.67,1.9-2.05,3.93-2.48,6.21-.34,1.8-.83,4.37,0,7.45.24.87.71,2.27,2.48,4.97,2.77,4.21,5.66,6.94,6.21,7.45,4.07,3.8,13.83,11.62,27.33,21.12l2.48,2.48c.25.1,2.08.84,2.48,2.48.46,1.84-1,4.22-3.73,4.97-1.29-.05-3.13-.09-5.34,0-4.03.17-6.09.27-8.33,1.24-.6.26-3.32,1.44-4.97,3.73-2.65,3.68-2.05,9.61,1.24,14.91.53.91,1.36,2.23,2.48,3.73,5.16,6.86,10.97,9.9,19.88,14.91,10.68,6,16.02,9,18.64,11.18,6.29,5.24,10.17,10.97,12.42,14.91l1.24,1.24-1.24,32.3c.06.42.29,1.54,1.24,2.48,1.47,1.46,3.45,1.27,3.73,1.24"/>
      <path class="cls-1" d="m91.54.13c.82,0,2.15.03,3.73.37,6.41,1.35,10.42,6.1,13.67,9.94,2.19,2.6,3.75,4.44,4.97,7.45,1.22,3.02,2.23,7.56,2.48,8.7.71,3.17.9,4.94,2.48,6.21.41.33,1.39,1.01,3.73,1.24,4.02.4,6.1-1.11,11.18-2.48,4.07-1.1,6.21-1.68,8.7-1.24,4.81.84,7.7,4.86,8.7,6.21,3.34,4.53,3.58,9.38,3.73,12.42.17,3.43-.35,5.79-1.24,9.94-1.35,6.31-3.78,12.91-4.97,16.15-.45,1.23-.79,2.5-1.24,3.73-.93,2.53-1.46,3.49-1.24,4.97.07.49.26,1.8,1.24,2.48,1.23.85,3,.25,3.73,0,9.49-3.22,15.62-4.6,17.39-4.97,5.83-1.2,7.99-.32,8.7,0,2.97,1.36,4.5,4.06,4.97,4.97,1.16,2.28,1.27,4.44,1.24,6.21-.14,8.04-3.43,15.5-3.73,16.15-2.18,4.83-6.11,13.55-14.91,21.12-2.07,1.78-7.14,5.84-13.67,9.94-1.29.81-6.07,3.77-9.94,8.7-.99,1.26-2.52,3.41-2.48,6.21.01.81.03,2.46,1.24,3.73,1.8,1.89,4.71,1.3,4.97,1.24,3.47-1.95,6.51-3.07,8.7-3.73,2.49-.75,4.02-.95,6.21-1.24,2-.26,2.84-.24,3.73,0,1.99.54,3.2,1.88,3.73,2.48,1.67,1.9,2.05,3.93,2.48,6.21.34,1.8.83,4.37,0,7.45-.24.87-.71,2.27-2.48,4.97-2.77,4.21-5.66,6.94-6.21,7.45-4.07,3.8-13.83,11.62-27.33,21.12l-2.48,2.48c-.25.1-2.08.84-2.48,2.48-.46,1.84,1,4.22,3.73,4.97,1.29-.05,3.13-.09,5.34,0,4.03.17,6.09.27,8.33,1.24.6.26,3.32,1.44,4.97,3.73,2.65,3.68,2.05,9.61-1.24,14.91-.53.91-1.36,2.23-2.48,3.73-5.16,6.86-10.97,9.9-19.88,14.91-10.68,6-16.02,9-18.64,11.18-6.29,5.24-10.17,10.97-12.42,14.91l-1.24,1.24,1.24,32.3c-.06.42-.29,1.54-1.24,2.48-1.47,1.46-3.45,1.27-3.73,1.24"/>
    </g>
  </g>
</svg>