<?xml version="1.0" encoding="UTF-8"?>
<svg id="Ebene_2" data-name="Ebene 2" xmlns="http://www.w3.org/2000/svg" viewBox="0 0 335.7 303.29">
  <defs>
    <style>
      .cls-1 {
        fill: #dfdfd8;
        stroke-width: 0px;
      }
    </style>
  </defs>
  <g id="Kastanie">
    <g>
      <g>
        <path class="cls-1" d="m160.57,219.11c-2.53-3.65-6.49-9.47-11.15-16.72-16.01-24.91-19.19-33.95-32.05-51.56-14.56-19.95-22.09-24.26-27.87-26.48-8.17-3.13-15.78-3.21-20.9-2.79l-68.59-.19"/>
        <path class="cls-1" d="m160.9,218.91c-4.4-.58-11.38-1.45-19.97-2.29-29.47-2.88-38.96-1.6-60.51-5.01-24.39-3.86-31.66-8.59-36.28-12.73-6.51-5.84-10.06-12.58-12.02-17.33L.69,120.6"/>
      </g>
      <g>
        <path class="cls-1" d="m175.13,219.11c2.53-3.65,6.49-9.47,11.15-16.72,16.01-24.91,19.19-33.95,32.05-51.56,14.56-19.95,22.09-24.26,27.87-26.48,8.17-3.13,15.78-3.21,20.9-2.79l68.59-.19"/>
        <path class="cls-1" d="m174.8,218.91c4.4-.58,11.38-1.45,19.97-2.29,29.47-2.88,38.96-1.6,60.51-5.01,24.39-3.86,31.66-8.59,36.28-12.73,6.51-5.84,10.06-12.58,12.02-17.33l31.45-60.95"/>
      </g>
      <g>
        <path class="cls-1" d="m160.48,222.46c-3.12.3-8.05.73-14.12,1.11-20.82,1.28-27.48.13-42.73,1.98-17.27,2.1-22.51,5.24-25.87,8.04-4.74,3.95-7.4,8.6-8.9,11.9l-23.7,42.12"/>
        <path class="cls-1" d="m160.47,222.19c-1.87,2.51-4.81,6.5-8.28,11.49-11.91,17.13-14.38,23.41-23.88,35.49-10.76,13.67-16.17,16.52-20.3,17.93-5.83,2-11.19,1.86-14.79,1.43l-48.3-1.62"/>
      </g>
      <g>
        <path class="cls-1" d="m174.19,222.75c3.12.3,8.05.73,14.12,1.11,20.82,1.28,27.48.13,42.73,1.98,17.27,2.1,22.51,5.24,25.87,8.04,4.74,3.95,7.4,8.6,8.9,11.9l23.7,42.12"/>
        <path class="cls-1" d="m174.2,222.47c1.87,2.51,4.81,6.5,8.28,11.49,11.91,17.13,14.38,23.41,23.88,35.49,10.76,13.67,16.17,16.52,20.3,17.93,5.83,2,11.19,1.86,14.79,1.43l48.3-1.62"/>
      </g>
      <g>
        <path class="cls-1" d="m167.83.04c-.96,4.04-2.77,10.22-6.27,17.13-8.48,16.73-17.7,19.51-27.87,33.45-2.48,3.39-13.29,18.78-15.33,40.42-1.7,18.06,3.45,32.59,6.97,40.42l42.51,86.95"/>
        <path class="cls-1" d="m167.28,0c.96,4.04,2.77,10.22,6.27,17.13,8.48,16.73,17.7,19.51,27.87,33.45,2.48,3.39,13.29,18.78,15.33,40.42,1.7,18.06-3.45,32.59-6.97,40.42l-42.51,86.95"/>
      </g>
      <rect class="cls-1" x="163.08" y="222.52" width="8.36" height="80.77"/>
    </g>
  </g>
</svg>