<?xml version="1.0" encoding="UTF-8"?>
<svg id="Ebene_2" data-name="Ebene 2" xmlns="http://www.w3.org/2000/svg" viewBox="0 0 235.93 270.45">
  <defs>
    <style>
      .cls-1 {
        fill: #8d834d;
        stroke: #000;
        stroke-miterlimit: 10;
        stroke-width: .25px;
      }
    </style>
  </defs>
  <g id="Linde">
    <path class="cls-1" d="m230.48,135.2c-7.56-24.32-19.8-41.1-30.29-55.23-7.89-10.64-14.42-17.82-20.19-24.16-5.08-5.59-22.98-24.94-50.48-46.6-4.92-3.88-9.04-6.96-11.78-8.97v.82c-2.73,2.01-6.67,4.96-11.34,8.65-27.5,21.66-45.39,41.01-50.48,46.6-5.77,6.34-12.3,13.52-20.19,24.16-10.49,14.13-22.72,30.91-30.29,55.23-3.15,10.12-6.29,20.6-5.05,34.52,1.37,15.31,7.23,25.59,8.41,27.61,1.77,3.03,6.49,10.49,15.14,17.26,10.99,8.61,21.84,11.01,26.92,12.08,16.43,3.45,29.79.01,35.33-1.73,12.34-3.87,21.25-10.41,26.92-15.61v60.49h10.1v-60.59c5.69,5.13,14.46,11.44,26.49,15.22,5.54,1.74,18.9,5.18,35.33,1.73,5.09-1.07,15.93-3.47,26.92-12.08,8.65-6.77,13.37-14.23,15.14-17.26,1.19-2.03,7.04-12.3,8.41-27.61,1.24-13.92-1.9-24.4-5.05-34.52Z"/>
  </g>
</svg>