<?xml version="1.0" encoding="UTF-8"?>
<svg id="Ebene_2" data-name="Ebene 2" xmlns="http://www.w3.org/2000/svg" viewBox="0 0 307.64 308.72">
  <defs>
    <style>
      .cls-1 {
        fill: #1458e7;
        stroke: #000;
        stroke-miterlimit: 10;
        stroke-width: .25px;
      }
    </style>
  </defs>
  <g id="Plantane">
    <path class="cls-1" d="m280.7,232.81l26.68-12.37-20.04-12.59c-1.46-.58-11.27-4.64-12.25-12.41-.15-1.18-.27-3.78,3.41-10.54,2.26-4.16,6.03-10.02,12.23-16.13-1.4-.53-7.14-2.86-9.48-8.65-2.78-6.87.31-15.87,8.11-21.13l12.81-31.73-8.82,5.6c-1.79,1.15-22.76,14.28-36.07,5.56-1.37-.89-2.76-2.09-4.06-3.71-14.43,12.04-29.23,16.57-35.78,12.03-3.45-2.39-5.48-6.23-5.48-6.24-2.61-4.94-2.12-9.73-1.83-11.59l5.7-17.13,2.05-11.77c-6.34,5.39-12.22,6.76-15.24,7.19-2.98.42-5.86.79-7.83-.94-2.11-1.86-2.05-5.16-1.83-11.59.13-3.8.53-6.94.88-9.12-1.51.4-5.87,1.33-10.42-.82-6.05-2.86-7.81-8.99-8.27-10.59-1.04-3.62-.71-6.75-.39-8.47-3.7-2.74-8.2-6.74-12.25-12.41C153.07,20.07,151.98,6.22,151.89,0l.08,9.42-.09-9.05c.02,6.21-.84,20.09-10.03,33.43-3.95,5.74-8.38,9.82-12.03,12.62.35,1.72.73,4.84-.24,8.48-.43,1.61-2.09,7.77-8.09,10.73-4.51,2.23-8.89,1.37-10.4,1,.39,2.18.84,5.31,1.04,9.11.33,6.43.45,9.73-1.63,11.62-1.93,1.76-4.82,1.44-7.81,1.07-3.03-.38-8.93-1.64-15.36-6.92l2.26,11.73,6,17.03c.32,1.85.89,6.64-1.63,11.62,0,0-1.96,3.88-5.37,6.33-6.46,4.65-21.34.39-35.98-11.4-1.28,1.64-2.65,2.86-4,3.78-13.16,8.96-34.36-3.81-36.17-4.93l-8.92-5.44,13.36,31.5c7.88,5.13,11.14,14.08,8.48,20.99-2.24,5.83-7.94,8.26-9.33,8.81,6.31,6.01,10.18,11.8,12.51,15.92,3.79,6.69,3.72,9.3,3.59,10.48-.85,7.79-10.58,12.02-12.03,12.62L.26,223.48l26.89,11.9-3.92,1.18,15.4,5.63-4,3.78c4.68-3.95,11.46-3.54,15.22.44,3.14,3.32,3.72,8.66,1.26,13l31.21-3-1.44,5.15c2.05-1.51,5.14-3.46,9.22-4.92,2.04-.73,9.8-3.52,11.7-.96,1.26,1.69-.96,4.5-.15,5.18,1.56,1.3,10.34-8.34,18.55-13.73,6.23-4.09,16.14-8.34,31.83-8.15v69.61h11.67v-69.87c11.33.81,19.03,4.16,24.23,7.44,8.3,5.24,17.25,14.74,18.78,13.41.8-.7-1.47-3.47-.24-5.18,1.86-2.59,9.66.06,11.71.76,4.1,1.39,7.22,3.29,9.3,4.76l-1.53-5.12,31.25,2.45c-2.54-4.3-2.06-9.65,1.03-13.02,3.69-4.04,10.46-4.57,15.21-.7l-4.06-3.71,15.3-5.9-3.94-1.12Z"/>
  </g>
</svg>