<?xml version="1.0" encoding="UTF-8"?><svg id="Ebene_2" xmlns="http://www.w3.org/2000/svg" viewBox="0 0 98 96.9"><defs><style>.cls-1{fill:#fff;}.cls-1,.cls-2{stroke-width:0px;}.cls-2{fill:#000078;}</style></defs><g id="Ebene_1-2"><polygon class="cls-2" points="36 94.4 36 70.98 15.71 82.69 2.7 60.16 22.98 48.45 2.7 36.74 15.71 14.21 36 25.92 36 2.5 62 2.5 62 25.92 82.29 14.21 95.3 36.74 75.02 48.45 95.3 60.16 82.29 82.69 62 70.98 62 94.4 36 94.4"/><path class="cls-1" d="m59.5,5v25.25l7.5-4.33,14.37-8.29,10.51,18.2-14.37,8.3-7.5,4.33,7.5,4.33,14.37,8.3-10.51,18.2-14.37-8.29-7.5-4.33v25.25h-21.01v-25.25l-7.5,4.33-14.37,8.29-10.51-18.2,14.37-8.3,7.5-4.33-7.5-4.33-14.37-8.3,10.51-18.2,14.37,8.29,7.5,4.33V5h21.01m24.51,11.1h0,0M62.57,0h-27.13c-1.07,0-1.94.87-1.94,1.94v19.65l-17.03-9.83c-.3-.17-.64-.26-.96-.26-.67,0-1.32.35-1.68.97L.26,35.97c-.53.93-.22,2.11.71,2.65l17.02,9.83L.97,58.27c-.93.54-1.24,1.72-.71,2.65l13.57,23.49c.36.63,1.01.97,1.68.97.33,0,.66-.08.96-.26l17.03-9.83v19.65c0,1.07.87,1.94,1.94,1.94h27.13c1.07,0,1.94-.87,1.94-1.94v-19.65l17.03,9.83c.3.17.64.26.96.26.67,0,1.32-.35,1.68-.97l13.57-23.49c.53-.93.22-2.11-.71-2.65l-17.02-9.83,17.02-9.83c.93-.54,1.24-1.72.71-2.65l-13.57-23.49c-.36-.63-1.01-.97-1.68-.97-.33,0-.66.08-.96.26l-17.03,9.83V1.94c0-1.07-.87-1.94-1.94-1.94h0Z"/></g></svg>