<?xml version="1.0" encoding="UTF-8"?>
<svg id="Ebene_2" data-name="Ebene 2" xmlns="http://www.w3.org/2000/svg" viewBox="0 0 447.03 469.94">
  <defs>
    <style>
      .cls-1 {
        fill: #fff;
        stroke: #000078;
        stroke-miterlimit: 10;
        stroke-width: 23.9px;
      }

      .cls-2 {
        fill: #000078;
        stroke-width: 0px;
      }
    </style>
  </defs>
  <g id="Stiel">
    <path class="cls-1" d="M128.83,125.64l74.23,107.97-53.99,224.38h74.67l36.68-153.52c21.93-86.04,48.92-126.53,86.04-177.14l-217.63-1.69Z"/>
  </g>
  <g id="Schirm">
    <path class="cls-2" d="M3.99,139.14h442.18c3.21-16.87-2.29-45.57-19.45-66.29-.3-.36-.6-.72-.91-1.08-21.97-25.85-56.3-37.66-89.63-31.36l-58.42,11.04L140.33,5.67c-22.25-7.41-46.33-7.62-68.59-.25-11.24,3.72-22.99,9.67-34.01,18.99C5.83,51.44-7.3,96.24,3.99,139.14Z"/>
  </g>
</svg>