<?xml version="1.0" encoding="UTF-8"?>
<svg id="Ebene_1" xmlns="http://www.w3.org/2000/svg" version="1.1" viewBox="0 0 1000 589.93">
  <!-- Generator: Adobe Illustrator 29.1.0, SVG Export Plug-In . SVG Version: 2.1.0 Build 142)  -->
  <defs>
    <style>
      .st0 {
        fill: #393939;
      }

      .st1 {
        fill: #8905fa;
      }

      .st2 {
        fill: #6100b4;
      }

      .st3 {
        fill: #3c006d;
      }

      .st4 {
        fill: #fff;
      }

      .st5 {
        fill: #ededed;
      }
    </style>
  </defs>
  <rect class="st3" x="60.98" y="13.92" width="288.89" height="208.41"/>
  <rect class="st2" x="349.87" y="13.92" width="288.89" height="208.41"/>
  <rect class="st1" x="638.76" y="13.92" width="288.89" height="208.41"/>
  <g>
    <path class="st4" d="M88.22,356.91c-.16-1.49-.83-2.65-2-3.48-1.18-.83-2.7-1.24-4.58-1.24-1.32,0-2.45.2-3.39.6-.94.4-1.67.94-2.17,1.62s-.76,1.46-.77,2.33c0,.73.17,1.36.5,1.89.33.53.79.99,1.37,1.36s1.22.68,1.93.93,1.41.46,2.13.63l3.27.82c1.32.31,2.59.72,3.81,1.25s2.32,1.18,3.29,1.98c.97.8,1.74,1.76,2.31,2.88.57,1.12.85,2.44.85,3.96,0,2.04-.52,3.84-1.57,5.39-1.05,1.55-2.55,2.76-4.53,3.63s-4.35,1.3-7.15,1.3-5.07-.42-7.07-1.26c-1.99-.84-3.55-2.07-4.67-3.68-1.12-1.61-1.72-3.58-1.82-5.9h6.22c.09,1.22.47,2.23,1.12,3.03s1.52,1.41,2.58,1.81c1.06.4,2.25.6,3.57.6s2.58-.21,3.62-.62c1.04-.42,1.85-.99,2.45-1.74s.89-1.62.9-2.62c-.01-.91-.28-1.66-.8-2.26-.52-.6-1.25-1.1-2.19-1.5s-2.03-.76-3.28-1.08l-3.97-1.02c-2.88-.74-5.15-1.86-6.81-3.37-1.67-1.51-2.5-3.51-2.5-6.01,0-2.06.56-3.86,1.68-5.4,1.12-1.55,2.64-2.75,4.58-3.61,1.93-.86,4.12-1.29,6.56-1.29s4.65.43,6.52,1.29c1.87.86,3.34,2.05,4.41,3.56,1.07,1.52,1.62,3.26,1.65,5.22h-6.09Z"/>
    <path class="st4" d="M111.56,382.73c-2.56,0-4.77-.56-6.65-1.69s-3.33-2.7-4.36-4.72-1.54-4.39-1.54-7.09.51-5.07,1.54-7.11,2.48-3.61,4.36-4.74,4.09-1.69,6.65-1.69,4.77.56,6.65,1.69,3.33,2.7,4.35,4.74c1.03,2.03,1.54,4.4,1.54,7.11s-.51,5.07-1.54,7.09c-1.03,2.02-2.48,3.6-4.35,4.72s-4.09,1.69-6.65,1.69ZM111.59,377.79c1.39,0,2.55-.38,3.48-1.15.93-.77,1.63-1.8,2.09-3.09.46-1.3.69-2.74.69-4.33s-.23-3.05-.69-4.35c-.46-1.3-1.16-2.34-2.09-3.11-.93-.77-2.09-1.16-3.48-1.16s-2.6.39-3.54,1.16c-.94.77-1.64,1.81-2.1,3.11-.46,1.3-.69,2.75-.69,4.35s.23,3.03.69,4.33c.46,1.29,1.16,2.33,2.1,3.09.94.77,2.12,1.15,3.54,1.15Z"/>
    <path class="st4" d="M128.98,382.22v-3.92l13.5-16.93v-.22h-13.06v-5.11h20.61v4.21l-12.85,16.64v.22h13.3v5.11h-21.49Z"/>
    <path class="st4" d="M159.39,352.33c-.98,0-1.82-.33-2.52-.99-.7-.66-1.06-1.45-1.06-2.37s.35-1.71,1.06-2.36,1.55-.98,2.52-.98,1.83.33,2.53.99c.7.66,1.05,1.45,1.05,2.37s-.35,1.71-1.05,2.36c-.7.65-1.54.98-2.53.98ZM156.28,382.22v-26.18h6.17v26.18h-6.17Z"/>
    <path class="st4" d="M176.33,382.75c-1.66,0-3.15-.3-4.47-.89s-2.37-1.48-3.14-2.65c-.77-1.17-1.15-2.61-1.15-4.33,0-1.48.27-2.7.82-3.67.55-.97,1.29-1.74,2.23-2.32.94-.58,2.01-1.02,3.2-1.32,1.19-.3,2.42-.52,3.69-.66,1.53-.16,2.78-.3,3.73-.43s1.65-.33,2.09-.61c.44-.28.66-.71.66-1.3v-.1c0-1.28-.38-2.28-1.14-2.98-.76-.71-1.86-1.06-3.29-1.06-1.51,0-2.71.33-3.59.99-.88.66-1.47,1.44-1.78,2.33l-5.76-.82c.45-1.59,1.2-2.92,2.25-4,1.05-1.07,2.32-1.88,3.84-2.42,1.51-.54,3.18-.81,5.01-.81,1.26,0,2.52.15,3.77.44,1.25.29,2.39.78,3.43,1.46,1.03.68,1.87,1.59,2.5,2.75.63,1.16.95,2.61.95,4.35v17.52h-5.93v-3.6h-.2c-.38.73-.9,1.41-1.58,2.04-.68.63-1.52,1.14-2.54,1.52-1.02.38-2.21.57-3.57.57ZM177.93,378.22c1.24,0,2.31-.25,3.22-.74s1.61-1.15,2.1-1.97c.49-.82.74-1.71.74-2.68v-3.09c-.19.16-.52.31-.98.44-.46.14-.97.26-1.54.36-.57.1-1.13.19-1.69.27s-1.04.15-1.45.2c-.92.13-1.74.33-2.47.61s-1.3.68-1.72,1.18c-.42.51-.63,1.16-.63,1.95,0,1.14.41,2,1.24,2.57s1.89.87,3.17.87Z"/>
    <path class="st4" d="M202.54,347.31v34.91h-6.17v-34.91h6.17Z"/>
    <path class="st4" d="M220.48,382.73c-2.62,0-4.89-.55-6.79-1.65s-3.37-2.65-4.39-4.67c-1.02-2.02-1.53-4.4-1.53-7.13s.51-5.06,1.54-7.1c1.03-2.04,2.47-3.63,4.32-4.77,1.85-1.14,4.03-1.71,6.53-1.71,1.61,0,3.14.26,4.58.78,1.44.52,2.71,1.32,3.82,2.39,1.11,1.08,1.98,2.45,2.62,4.12.64,1.66.95,3.64.95,5.94v1.89h-21.46v-4.16h15.54c-.01-1.18-.27-2.24-.77-3.16-.5-.93-1.2-1.66-2.09-2.19-.89-.53-1.93-.8-3.11-.8-1.26,0-2.37.3-3.32.91-.95.61-1.7,1.4-2.22,2.39-.53.98-.8,2.06-.81,3.23v3.63c0,1.52.28,2.83.84,3.91.56,1.08,1.33,1.92,2.34,2.49,1,.57,2.17.86,3.51.86.9,0,1.71-.13,2.44-.38.73-.26,1.36-.63,1.89-1.13s.94-1.12,1.21-1.86l5.76.65c-.36,1.52-1.05,2.85-2.07,3.98-1.02,1.13-2.32,2.01-3.9,2.62s-3.39.93-5.42.93Z"/>
    <path class="st4" d="M249.52,382.22v-34.91h6.32v29.61h15.38v5.3h-21.7Z"/>
    <path class="st4" d="M283.95,382.75c-1.66,0-3.15-.3-4.47-.89-1.32-.6-2.37-1.48-3.14-2.65-.77-1.17-1.15-2.61-1.15-4.33,0-1.48.27-2.7.82-3.67.54-.97,1.29-1.74,2.23-2.32.94-.58,2.01-1.02,3.2-1.32s2.42-.52,3.69-.66c1.53-.16,2.78-.3,3.73-.43.96-.13,1.65-.33,2.09-.61.44-.28.66-.71.66-1.3v-.1c0-1.28-.38-2.28-1.14-2.98-.76-.71-1.86-1.06-3.29-1.06-1.51,0-2.71.33-3.59.99s-1.47,1.44-1.78,2.33l-5.76-.82c.45-1.59,1.2-2.92,2.25-4,1.04-1.07,2.32-1.88,3.83-2.42,1.51-.54,3.18-.81,5.01-.81,1.26,0,2.52.15,3.77.44,1.25.29,2.39.78,3.43,1.46s1.87,1.59,2.5,2.75c.63,1.16.95,2.61.95,4.35v17.52h-5.93v-3.6h-.21c-.38.73-.9,1.41-1.58,2.04-.68.63-1.52,1.14-2.54,1.52-1.02.38-2.21.57-3.57.57ZM285.56,378.22c1.24,0,2.31-.25,3.22-.74s1.61-1.15,2.11-1.97.74-1.71.74-2.68v-3.09c-.19.16-.52.31-.98.44-.46.14-.97.26-1.54.36-.57.1-1.13.19-1.69.27-.56.08-1.04.15-1.45.2-.92.13-1.74.33-2.47.61s-1.3.68-1.72,1.18c-.42.51-.63,1.16-.63,1.95,0,1.14.42,2,1.25,2.57.83.58,1.89.87,3.17.87Z"/>
    <path class="st4" d="M315.38,392.59c-2.22,0-4.12-.3-5.71-.89s-2.87-1.4-3.83-2.39c-.97-1-1.64-2.11-2.01-3.32l5.56-1.35c.25.51.61,1.02,1.09,1.53.48.51,1.12.93,1.93,1.26s1.84.5,3.08.5c1.75,0,3.2-.42,4.35-1.27,1.15-.85,1.72-2.24,1.72-4.17v-4.96h-.31c-.32.64-.78,1.29-1.39,1.96-.61.67-1.41,1.23-2.4,1.69s-2.24.68-3.74.68c-2.01,0-3.83-.47-5.46-1.42-1.63-.95-2.93-2.37-3.89-4.26-.96-1.89-1.44-4.26-1.44-7.12s.48-5.3,1.44-7.29c.96-1.98,2.26-3.49,3.89-4.52,1.64-1.03,3.46-1.54,5.47-1.54,1.53,0,2.8.26,3.79.78.99.52,1.79,1.14,2.38,1.86.59.72,1.04,1.4,1.35,2.04h.34v-4.33h6.08v26.61c0,2.24-.53,4.09-1.6,5.56-1.07,1.47-2.53,2.56-4.38,3.29-1.85.73-3.95,1.09-6.31,1.09ZM315.44,377.01c1.31,0,2.42-.32,3.34-.96.92-.64,1.62-1.55,2.1-2.74.48-1.19.72-2.62.72-4.29s-.24-3.09-.71-4.33c-.47-1.24-1.17-2.2-2.08-2.89-.92-.69-2.04-1.03-3.37-1.03s-2.52.36-3.44,1.07c-.92.72-1.61,1.7-2.08,2.94s-.7,2.66-.7,4.24.24,3,.71,4.2c.47,1.2,1.17,2.13,2.1,2.8.93.67,2.07,1,3.42,1Z"/>
    <path class="st4" d="M345.61,382.73c-2.62,0-4.89-.55-6.79-1.65s-3.37-2.65-4.39-4.67c-1.02-2.02-1.53-4.4-1.53-7.13s.51-5.06,1.54-7.1c1.03-2.04,2.47-3.63,4.32-4.77,1.85-1.14,4.03-1.71,6.53-1.71,1.61,0,3.14.26,4.58.78,1.44.52,2.71,1.32,3.82,2.39,1.11,1.08,1.98,2.45,2.62,4.12.64,1.66.95,3.64.95,5.94v1.89h-21.46v-4.16h15.54c-.01-1.18-.27-2.24-.77-3.16-.5-.93-1.2-1.66-2.09-2.19-.89-.53-1.93-.8-3.11-.8-1.26,0-2.37.3-3.32.91-.96.61-1.7,1.4-2.22,2.39-.53.98-.8,2.06-.81,3.23v3.63c0,1.52.28,2.83.83,3.91s1.33,1.92,2.33,2.49c1,.57,2.17.86,3.51.86.9,0,1.71-.13,2.44-.38.73-.26,1.36-.63,1.89-1.13s.94-1.12,1.21-1.86l5.76.65c-.36,1.52-1.05,2.85-2.07,3.98-1.02,1.13-2.32,2.01-3.9,2.62s-3.39.93-5.42.93Z"/>
  </g>
  <rect class="st4" x="73.31" y="266.66" width="33.83" height="5.72" transform="translate(359.75 179.3) rotate(90)"/>
  <rect class="st4" x="73.31" y="264.53" width="33.83" height="5.72" transform="translate(180.45 534.79) rotate(180)"/>
  <g>
    <path class="st4" d="M142.75,451.5c0,3.76-.7,6.98-2.1,9.66-1.4,2.68-3.31,4.72-5.73,6.14-2.42,1.42-5.15,2.13-8.21,2.13s-5.79-.71-8.21-2.14c-2.42-1.43-4.32-3.48-5.73-6.15-1.4-2.68-2.11-5.89-2.11-9.64s.7-6.98,2.11-9.66c1.4-2.68,3.31-4.72,5.73-6.15,2.41-1.42,5.15-2.13,8.21-2.13s5.79.71,8.21,2.13c2.41,1.42,4.32,3.47,5.73,6.15,1.4,2.68,2.1,5.89,2.1,9.66ZM136.39,451.5c0-2.65-.41-4.88-1.24-6.71-.82-1.82-1.96-3.2-3.42-4.14s-3.13-1.41-5.03-1.41-3.57.47-5.03,1.41c-1.46.94-2.59,2.32-3.42,4.14-.82,1.82-1.24,4.06-1.24,6.71s.41,4.88,1.24,6.71,1.96,3.2,3.42,4.14c1.45.94,3.13,1.41,5.03,1.41s3.57-.47,5.03-1.41,2.59-2.32,3.42-4.14,1.24-4.06,1.24-6.71ZM121.61,430.19c-.9,0-1.67-.32-2.33-.95-.65-.64-.98-1.39-.98-2.25,0-.91.33-1.67.98-2.29.65-.62,1.43-.93,2.33-.93s1.7.31,2.33.93c.63.62.95,1.38.95,2.29s-.32,1.61-.95,2.25-1.41.95-2.33.95ZM131.84,430.19c-.9,0-1.67-.32-2.33-.95s-.98-1.39-.98-2.25c0-.91.33-1.67.98-2.29.65-.62,1.43-.93,2.33-.93s1.7.31,2.33.93c.63.62.95,1.38.95,2.29s-.32,1.61-.95,2.25c-.63.64-1.41.95-2.33.95Z"/>
    <path class="st4" d="M161.74,442.77v4.77h-15.48v-4.77h15.48ZM150.13,468.95v-28.65c0-1.76.37-3.23,1.1-4.4.73-1.17,1.72-2.05,2.96-2.62,1.24-.58,2.61-.87,4.12-.87,1.07,0,2.02.09,2.85.26.83.17,1.44.32,1.84.46l-1.23,4.77c-.26-.08-.59-.16-.99-.25-.4-.09-.84-.13-1.33-.13-1.15,0-1.96.28-2.43.83-.47.55-.71,1.34-.71,2.36v28.24h-6.19Z"/>
    <path class="st4" d="M179.84,442.77v4.77h-15.48v-4.77h15.48ZM168.23,468.95v-28.65c0-1.76.37-3.23,1.1-4.4.73-1.17,1.72-2.05,2.96-2.62,1.24-.58,2.61-.87,4.12-.87,1.07,0,2.02.09,2.85.26.83.17,1.44.32,1.84.46l-1.23,4.77c-.26-.08-.59-.16-.99-.25-.4-.09-.84-.13-1.33-.13-1.15,0-1.96.28-2.43.83-.47.55-.71,1.34-.71,2.36v28.24h-6.19Z"/>
    <path class="st4" d="M195.28,469.46c-2.62,0-4.89-.55-6.79-1.65s-3.37-2.65-4.39-4.67c-1.02-2.02-1.53-4.4-1.53-7.13s.51-5.06,1.54-7.1c1.03-2.04,2.47-3.63,4.32-4.77,1.85-1.14,4.03-1.71,6.53-1.71,1.61,0,3.14.26,4.58.78,1.44.52,2.71,1.32,3.82,2.39,1.11,1.08,1.98,2.45,2.62,4.12.64,1.66.95,3.64.95,5.94v1.89h-21.46v-4.16h15.55c-.01-1.18-.27-2.24-.77-3.16-.5-.93-1.2-1.66-2.09-2.19s-1.93-.8-3.11-.8c-1.26,0-2.37.3-3.32.91-.95.61-1.7,1.4-2.22,2.39-.53.98-.8,2.06-.81,3.23v3.63c0,1.52.28,2.83.84,3.91.56,1.08,1.33,1.92,2.34,2.49,1,.57,2.17.86,3.51.86.9,0,1.71-.13,2.44-.38.73-.26,1.36-.63,1.89-1.13.53-.5.94-1.12,1.21-1.86l5.76.65c-.36,1.52-1.05,2.85-2.07,3.98-1.02,1.13-2.32,2.01-3.9,2.62s-3.39.93-5.42.93Z"/>
    <path class="st4" d="M218.31,453.61v15.34h-6.17v-26.18h5.9v4.45h.31c.6-1.47,1.57-2.63,2.89-3.49,1.32-.86,2.96-1.29,4.92-1.29,1.81,0,3.38.39,4.73,1.16,1.35.77,2.39,1.89,3.14,3.36.74,1.47,1.11,3.25,1.1,5.33v16.67h-6.17v-15.72c0-1.75-.45-3.12-1.35-4.11-.9-.99-2.15-1.48-3.74-1.48-1.08,0-2.04.24-2.87.71-.83.47-1.49,1.15-1.96,2.04-.47.89-.71,1.96-.71,3.22Z"/>
    <path class="st4" d="M254.48,442.77v4.77h-15.05v-4.77h15.05ZM243.15,436.5h6.17v24.58c0,.83.13,1.46.38,1.9.26.44.59.74,1.01.9s.89.24,1.4.24c.39,0,.74-.03,1.07-.08s.57-.11.74-.15l1.04,4.82c-.33.11-.8.24-1.41.38-.61.14-1.35.22-2.22.24-1.55.04-2.94-.19-4.18-.71-1.24-.52-2.22-1.32-2.94-2.41-.72-1.09-1.08-2.45-1.07-4.09v-25.6Z"/>
    <path class="st4" d="M266.36,434.04v34.91h-6.17v-34.91h6.17Z"/>
    <path class="st4" d="M275.8,439.05c-.98,0-1.82-.33-2.52-.99-.71-.66-1.06-1.45-1.06-2.37s.35-1.71,1.06-2.36c.7-.65,1.54-.98,2.52-.98s1.83.33,2.53.99c.7.66,1.05,1.45,1.05,2.37s-.35,1.71-1.05,2.36c-.7.65-1.54.98-2.53.98ZM272.7,468.95v-26.18h6.17v26.18h-6.17Z"/>
    <path class="st4" d="M296.63,469.46c-2.61,0-4.86-.57-6.72-1.72s-3.31-2.74-4.31-4.76-1.51-4.37-1.51-7.01.51-5.01,1.53-7.05c1.02-2.04,2.47-3.63,4.34-4.77,1.87-1.14,4.08-1.71,6.64-1.71,2.12,0,4.01.39,5.65,1.17,1.64.78,2.95,1.88,3.93,3.29.98,1.42,1.53,3.07,1.67,4.95h-5.9c-.24-1.26-.8-2.32-1.7-3.16-.89-.85-2.08-1.27-3.57-1.27-1.26,0-2.37.34-3.32,1.01-.96.68-1.7,1.64-2.22,2.91s-.79,2.77-.79,4.53.26,3.32.78,4.59,1.26,2.26,2.21,2.95c.95.69,2.06,1.03,3.35,1.03.91,0,1.72-.17,2.45-.52s1.33-.85,1.82-1.51c.49-.66.82-1.46,1.01-2.4h5.9c-.15,1.85-.69,3.49-1.64,4.92-.94,1.43-2.23,2.54-3.85,3.34s-3.53,1.2-5.73,1.2Z"/>
    <path class="st4" d="M319.1,453.61v15.34h-6.17v-34.91h6.03v13.18h.31c.61-1.48,1.56-2.64,2.85-3.5,1.29-.86,2.93-1.29,4.93-1.29,1.82,0,3.4.38,4.76,1.14,1.35.76,2.4,1.88,3.15,3.34.74,1.47,1.12,3.26,1.12,5.37v16.67h-6.17v-15.72c0-1.76-.45-3.13-1.35-4.12-.9-.98-2.17-1.47-3.79-1.47-1.09,0-2.07.24-2.92.71-.86.47-1.53,1.15-2.01,2.04-.48.89-.72,1.96-.72,3.22Z"/>
    <path class="st4" d="M353.94,469.46c-2.62,0-4.89-.55-6.79-1.65s-3.37-2.65-4.39-4.67c-1.02-2.02-1.53-4.4-1.53-7.13s.51-5.06,1.54-7.1c1.03-2.04,2.47-3.63,4.32-4.77,1.85-1.14,4.03-1.71,6.53-1.71,1.61,0,3.14.26,4.58.78,1.44.52,2.71,1.32,3.82,2.39,1.11,1.08,1.98,2.45,2.62,4.12.64,1.66.95,3.64.95,5.94v1.89h-21.46v-4.16h15.54c-.01-1.18-.27-2.24-.77-3.16-.5-.93-1.2-1.66-2.09-2.19-.89-.53-1.93-.8-3.11-.8-1.26,0-2.37.3-3.32.91-.96.61-1.7,1.4-2.22,2.39-.53.98-.8,2.06-.81,3.23v3.63c0,1.52.28,2.83.83,3.91s1.33,1.92,2.33,2.49c1,.57,2.17.86,3.51.86.9,0,1.71-.13,2.44-.38.73-.26,1.36-.63,1.89-1.13s.94-1.12,1.21-1.86l5.76.65c-.36,1.52-1.05,2.85-2.07,3.98-1.02,1.13-2.32,2.01-3.9,2.62s-3.39.93-5.42.93Z"/>
    <path class="st4" d="M401.96,443.64c-.16-1.49-.83-2.65-2-3.48-1.18-.83-2.7-1.24-4.58-1.24-1.32,0-2.45.2-3.39.6s-1.67.94-2.17,1.62-.76,1.46-.77,2.33c0,.73.17,1.36.5,1.89.33.53.79.99,1.37,1.36.58.37,1.22.68,1.93.93.7.25,1.42.46,2.13.63l3.27.82c1.32.31,2.59.72,3.81,1.25s2.32,1.18,3.29,1.98c.97.8,1.74,1.76,2.31,2.88s.85,2.44.85,3.96c0,2.04-.52,3.84-1.57,5.39-1.05,1.55-2.55,2.76-4.53,3.63-1.97.87-4.36,1.3-7.15,1.3s-5.07-.42-7.07-1.26c-2-.84-3.55-2.07-4.67-3.68-1.12-1.61-1.72-3.58-1.82-5.9h6.22c.09,1.22.47,2.23,1.12,3.03s1.52,1.41,2.58,1.81c1.06.4,2.25.6,3.57.6s2.58-.21,3.62-.62c1.04-.42,1.86-.99,2.45-1.74s.89-1.62.9-2.62c-.01-.91-.28-1.66-.8-2.26-.52-.6-1.25-1.1-2.19-1.5s-2.03-.76-3.28-1.08l-3.97-1.02c-2.88-.74-5.15-1.86-6.81-3.37-1.67-1.51-2.5-3.51-2.5-6.01,0-2.06.56-3.86,1.68-5.4,1.12-1.55,2.64-2.75,4.58-3.61,1.93-.86,4.12-1.29,6.56-1.29s4.65.43,6.52,1.29c1.87.86,3.34,2.05,4.41,3.56,1.07,1.52,1.62,3.26,1.65,5.22h-6.08Z"/>
    <path class="st4" d="M425.29,469.46c-2.61,0-4.86-.57-6.72-1.72s-3.31-2.74-4.31-4.76-1.51-4.37-1.51-7.01.51-5.01,1.53-7.05c1.02-2.04,2.47-3.63,4.34-4.77,1.87-1.14,4.08-1.71,6.64-1.71,2.12,0,4.01.39,5.65,1.17,1.64.78,2.95,1.88,3.93,3.29.98,1.42,1.53,3.07,1.67,4.95h-5.9c-.24-1.26-.8-2.32-1.7-3.16-.89-.85-2.08-1.27-3.57-1.27-1.26,0-2.37.34-3.32,1.01-.96.68-1.7,1.64-2.22,2.91s-.79,2.77-.79,4.53.26,3.32.78,4.59,1.26,2.26,2.21,2.95c.95.69,2.06,1.03,3.35,1.03.91,0,1.72-.17,2.45-.52s1.33-.85,1.82-1.51c.49-.66.82-1.46,1.01-2.4h5.9c-.15,1.85-.69,3.49-1.64,4.92-.94,1.43-2.23,2.54-3.85,3.34s-3.53,1.2-5.73,1.2Z"/>
    <path class="st4" d="M447.76,453.61v15.34h-6.17v-34.91h6.03v13.18h.31c.61-1.48,1.56-2.64,2.85-3.5,1.29-.86,2.93-1.29,4.93-1.29,1.82,0,3.4.38,4.76,1.14,1.35.76,2.4,1.88,3.15,3.34.74,1.47,1.12,3.26,1.12,5.37v16.67h-6.17v-15.72c0-1.76-.45-3.13-1.35-4.12-.9-.98-2.17-1.47-3.79-1.47-1.09,0-2.07.24-2.92.71-.86.47-1.53,1.15-2.01,2.04-.48.89-.72,1.96-.72,3.22Z"/>
    <path class="st4" d="M487.69,457.94v-15.17h6.17v26.18h-5.98v-4.65h-.27c-.59,1.47-1.56,2.67-2.91,3.6s-3,1.4-4.97,1.4c-1.72,0-3.23-.38-4.54-1.15-1.31-.77-2.34-1.89-3.08-3.36-.74-1.47-1.11-3.25-1.11-5.34v-16.67h6.17v15.72c0,1.66.45,2.98,1.36,3.95.91.98,2.1,1.47,3.58,1.47.91,0,1.79-.22,2.64-.66.85-.44,1.55-1.11,2.11-1.99.55-.88.83-1.99.83-3.32Z"/>
    <path class="st4" d="M506.38,434.04v34.91h-6.17v-34.91h6.17Z"/>
    <path class="st4" d="M524.31,469.46c-2.62,0-4.89-.55-6.79-1.65s-3.37-2.65-4.39-4.67c-1.02-2.02-1.53-4.4-1.53-7.13s.51-5.06,1.54-7.1c1.03-2.04,2.47-3.63,4.32-4.77,1.85-1.14,4.03-1.71,6.53-1.71,1.61,0,3.14.26,4.58.78,1.44.52,2.71,1.32,3.82,2.39,1.11,1.08,1.98,2.45,2.62,4.12.64,1.66.95,3.64.95,5.94v1.89h-21.46v-4.16h15.54c-.01-1.18-.27-2.24-.77-3.16-.5-.93-1.2-1.66-2.09-2.19-.89-.53-1.93-.8-3.11-.8-1.26,0-2.37.3-3.32.91-.96.61-1.7,1.4-2.22,2.39-.53.98-.8,2.06-.81,3.23v3.63c0,1.52.28,2.83.83,3.91s1.33,1.92,2.33,2.49c1,.57,2.17.86,3.51.86.9,0,1.71-.13,2.44-.38.73-.26,1.36-.63,1.89-1.13s.94-1.12,1.21-1.86l5.76.65c-.36,1.52-1.05,2.85-2.07,3.98-1.02,1.13-2.32,2.01-3.9,2.62s-3.39.93-5.42.93Z"/>
    <path class="st4" d="M547.33,453.61v15.34h-6.17v-26.18h5.9v4.45h.31c.6-1.47,1.57-2.63,2.89-3.49,1.32-.86,2.96-1.29,4.92-1.29,1.81,0,3.38.39,4.73,1.16,1.35.77,2.39,1.89,3.14,3.36s1.11,3.25,1.1,5.33v16.67h-6.17v-15.72c0-1.75-.45-3.12-1.36-4.11-.9-.99-2.15-1.48-3.74-1.48-1.08,0-2.04.24-2.87.71-.84.47-1.49,1.15-1.96,2.04s-.71,1.96-.71,3.22Z"/>
  </g>
  <g>
    <path class="st4" d="M113.72,520.96v-34.91h13.09c2.68,0,4.93.5,6.76,1.5,1.82,1,3.2,2.37,4.14,4.12.94,1.75,1.41,3.72,1.41,5.94s-.47,4.23-1.41,5.97c-.94,1.74-2.34,3.11-4.18,4.1-1.84,1-4.11,1.49-6.8,1.49h-8.68v-5.2h7.82c1.57,0,2.85-.27,3.85-.82s1.74-1.3,2.22-2.25c.48-.95.72-2.05.72-3.29s-.24-2.33-.72-3.27c-.48-.94-1.23-1.68-2.23-2.21-1.01-.53-2.3-.79-3.88-.79h-5.8v29.62h-6.32Z"/>
    <path class="st4" d="M144.33,520.96v-26.18h5.98v4.36h.27c.48-1.51,1.3-2.68,2.46-3.5,1.16-.82,2.5-1.24,4-1.24.34,0,.72.01,1.15.04.43.03.78.07,1.06.13v5.68c-.26-.09-.67-.17-1.24-.25-.56-.07-1.11-.11-1.63-.11-1.12,0-2.13.24-3.03.72-.89.48-1.59,1.15-2.1,2s-.77,1.83-.77,2.95v15.39h-6.17Z"/>
    <path class="st4" d="M166.47,491.06c-.98,0-1.82-.33-2.52-.99-.7-.66-1.06-1.45-1.06-2.37s.35-1.71,1.06-2.36,1.55-.98,2.52-.98,1.83.33,2.53.99c.7.66,1.05,1.45,1.05,2.37s-.35,1.71-1.05,2.36c-.7.65-1.54.98-2.53.98ZM163.37,520.96v-26.18h6.17v26.18h-6.17Z"/>
    <path class="st4" d="M199.27,494.78l-9.32,26.18h-6.82l-9.32-26.18h6.58l6.02,19.45h.27l6.03-19.45h6.56Z"/>
    <path class="st4" d="M210.3,521.49c-1.66,0-3.15-.3-4.47-.89s-2.37-1.48-3.14-2.65c-.77-1.17-1.15-2.61-1.15-4.33,0-1.48.27-2.7.82-3.67.55-.97,1.29-1.74,2.23-2.32.94-.58,2.01-1.02,3.2-1.32,1.19-.3,2.42-.52,3.69-.66,1.53-.16,2.78-.3,3.73-.43s1.65-.33,2.09-.61c.44-.28.66-.71.66-1.3v-.1c0-1.28-.38-2.28-1.14-2.98-.76-.71-1.86-1.06-3.29-1.06-1.51,0-2.71.33-3.59.99-.88.66-1.47,1.44-1.78,2.33l-5.76-.82c.45-1.59,1.2-2.92,2.25-4,1.05-1.07,2.32-1.88,3.84-2.42,1.51-.54,3.18-.81,5.01-.81,1.26,0,2.52.15,3.77.44,1.25.29,2.39.78,3.43,1.46,1.03.68,1.87,1.59,2.5,2.75.63,1.16.95,2.61.95,4.35v17.52h-5.93v-3.6h-.2c-.38.73-.9,1.41-1.58,2.04-.68.63-1.52,1.14-2.54,1.52-1.02.38-2.21.57-3.57.57ZM211.9,516.95c1.24,0,2.31-.25,3.22-.74s1.61-1.15,2.1-1.97c.49-.82.74-1.71.74-2.68v-3.09c-.19.16-.52.31-.98.44-.46.14-.97.26-1.54.36-.57.1-1.13.19-1.69.27s-1.04.15-1.45.2c-.92.13-1.74.33-2.47.61s-1.3.68-1.72,1.18c-.42.51-.63,1.16-.63,1.95,0,1.14.41,2,1.24,2.57s1.89.87,3.17.87Z"/>
    <path class="st4" d="M243.42,494.78v4.77h-15.05v-4.77h15.05ZM232.08,488.51h6.17v24.58c0,.83.13,1.46.38,1.9.26.44.59.74,1.01.9s.89.24,1.4.24c.39,0,.74-.03,1.07-.08s.57-.11.74-.15l1.04,4.82c-.33.11-.8.24-1.41.38-.61.14-1.35.22-2.22.24-1.55.04-2.94-.19-4.18-.71-1.24-.52-2.22-1.32-2.94-2.41-.72-1.09-1.08-2.45-1.07-4.09v-25.6Z"/>
    <path class="st4" d="M259.9,521.47c-2.62,0-4.89-.55-6.79-1.65s-3.37-2.65-4.39-4.67c-1.02-2.02-1.53-4.4-1.53-7.13s.51-5.06,1.54-7.1c1.03-2.04,2.47-3.63,4.32-4.77,1.85-1.14,4.03-1.71,6.53-1.71,1.61,0,3.14.26,4.58.78,1.44.52,2.71,1.32,3.82,2.39,1.11,1.08,1.98,2.45,2.62,4.12.64,1.66.95,3.64.95,5.94v1.89h-21.46v-4.16h15.54c-.01-1.18-.27-2.24-.77-3.16-.5-.93-1.2-1.66-2.09-2.19s-1.93-.8-3.11-.8c-1.26,0-2.37.3-3.32.91-.95.61-1.7,1.4-2.22,2.39-.53.98-.8,2.06-.81,3.23v3.63c0,1.52.28,2.83.84,3.91.56,1.08,1.33,1.92,2.34,2.49,1,.57,2.17.86,3.51.86.9,0,1.71-.13,2.44-.38.73-.26,1.36-.63,1.89-1.13.53-.5.94-1.12,1.21-1.86l5.76.65c-.36,1.52-1.05,2.85-2.07,3.98-1.02,1.13-2.32,2.01-3.9,2.62-1.58.62-3.39.93-5.42.93Z"/>
    <path class="st4" d="M307.92,495.65c-.16-1.49-.83-2.65-2-3.48-1.18-.83-2.7-1.24-4.58-1.24-1.32,0-2.45.2-3.39.6s-1.67.94-2.17,1.62-.76,1.46-.77,2.33c0,.73.17,1.36.5,1.89.33.53.79.99,1.37,1.36.58.37,1.22.68,1.93.93.7.25,1.42.46,2.13.63l3.27.82c1.32.31,2.59.72,3.81,1.25s2.32,1.18,3.29,1.98c.97.8,1.74,1.76,2.31,2.88s.85,2.44.85,3.96c0,2.04-.52,3.84-1.57,5.39-1.05,1.55-2.55,2.76-4.53,3.63-1.97.87-4.36,1.3-7.15,1.3s-5.07-.42-7.07-1.26c-2-.84-3.55-2.07-4.67-3.68-1.12-1.61-1.72-3.58-1.82-5.9h6.22c.09,1.22.47,2.23,1.12,3.03s1.52,1.41,2.58,1.81c1.06.4,2.25.6,3.57.6s2.58-.21,3.62-.62c1.04-.42,1.86-.99,2.45-1.74s.89-1.62.9-2.62c-.01-.91-.28-1.66-.8-2.26-.52-.6-1.25-1.1-2.19-1.5s-2.03-.76-3.28-1.08l-3.97-1.02c-2.88-.74-5.15-1.86-6.81-3.37-1.67-1.51-2.5-3.51-2.5-6.01,0-2.06.56-3.86,1.68-5.4,1.12-1.55,2.64-2.75,4.58-3.61,1.93-.86,4.12-1.29,6.56-1.29s4.65.43,6.52,1.29c1.87.86,3.34,2.05,4.41,3.56,1.07,1.52,1.62,3.26,1.65,5.22h-6.08Z"/>
    <path class="st4" d="M331.25,521.47c-2.61,0-4.86-.57-6.72-1.72s-3.31-2.74-4.31-4.76-1.51-4.37-1.51-7.01.51-5.01,1.53-7.05c1.02-2.04,2.47-3.63,4.34-4.77,1.87-1.14,4.08-1.71,6.64-1.71,2.12,0,4.01.39,5.65,1.17,1.64.78,2.95,1.88,3.93,3.29.98,1.42,1.53,3.07,1.67,4.95h-5.9c-.24-1.26-.8-2.32-1.7-3.16-.89-.85-2.08-1.27-3.57-1.27-1.26,0-2.37.34-3.32,1.01-.96.68-1.7,1.64-2.22,2.91s-.79,2.77-.79,4.53.26,3.32.78,4.59,1.26,2.26,2.21,2.95c.95.69,2.06,1.03,3.35,1.03.91,0,1.72-.17,2.45-.52s1.33-.85,1.82-1.51c.49-.66.82-1.46,1.01-2.4h5.9c-.15,1.85-.69,3.49-1.64,4.92-.94,1.43-2.23,2.54-3.85,3.34s-3.53,1.2-5.73,1.2Z"/>
    <path class="st4" d="M353.72,505.62v15.34h-6.17v-34.91h6.03v13.18h.31c.61-1.48,1.56-2.64,2.85-3.5,1.29-.86,2.93-1.29,4.93-1.29,1.82,0,3.4.38,4.76,1.14,1.35.76,2.4,1.88,3.15,3.34.74,1.47,1.12,3.26,1.12,5.37v16.67h-6.17v-15.72c0-1.76-.45-3.13-1.35-4.12-.9-.98-2.17-1.47-3.79-1.47-1.09,0-2.07.24-2.92.71-.86.47-1.53,1.15-2.01,2.04-.48.89-.72,1.96-.72,3.22Z"/>
    <path class="st4" d="M393.65,509.95v-15.17h6.17v26.18h-5.98v-4.65h-.27c-.59,1.47-1.56,2.67-2.91,3.6s-3,1.4-4.97,1.4c-1.72,0-3.23-.38-4.54-1.15-1.31-.77-2.34-1.89-3.08-3.36-.74-1.47-1.11-3.25-1.11-5.34v-16.67h6.17v15.72c0,1.66.45,2.98,1.36,3.95.91.98,2.1,1.47,3.58,1.47.91,0,1.79-.22,2.64-.66.85-.44,1.55-1.11,2.11-1.99.55-.88.83-1.99.83-3.32Z"/>
    <path class="st4" d="M412.33,486.05v34.91h-6.17v-34.91h6.17Z"/>
    <path class="st4" d="M430.27,521.47c-2.62,0-4.89-.55-6.79-1.65s-3.37-2.65-4.39-4.67c-1.02-2.02-1.53-4.4-1.53-7.13s.51-5.06,1.54-7.1c1.03-2.04,2.47-3.63,4.32-4.77,1.85-1.14,4.03-1.71,6.53-1.71,1.61,0,3.14.26,4.58.78,1.44.52,2.71,1.32,3.82,2.39,1.11,1.08,1.98,2.45,2.62,4.12.64,1.66.95,3.64.95,5.94v1.89h-21.46v-4.16h15.54c-.01-1.18-.27-2.24-.77-3.16-.5-.93-1.2-1.66-2.09-2.19-.89-.53-1.93-.8-3.11-.8-1.26,0-2.37.3-3.32.91-.96.61-1.7,1.4-2.22,2.39-.53.98-.8,2.06-.81,3.23v3.63c0,1.52.28,2.83.83,3.91s1.33,1.92,2.33,2.49c1,.57,2.17.86,3.51.86.9,0,1.71-.13,2.44-.38.73-.26,1.36-.63,1.89-1.13s.94-1.12,1.21-1.86l5.76.65c-.36,1.52-1.05,2.85-2.07,3.98-1.02,1.13-2.32,2.01-3.9,2.62s-3.39.93-5.42.93Z"/>
    <path class="st4" d="M453.29,505.62v15.34h-6.17v-26.18h5.9v4.45h.31c.6-1.47,1.57-2.63,2.89-3.49,1.32-.86,2.96-1.29,4.92-1.29,1.81,0,3.38.39,4.73,1.16,1.35.77,2.39,1.89,3.14,3.36s1.11,3.25,1.1,5.33v16.67h-6.17v-15.72c0-1.75-.45-3.12-1.36-4.11-.9-.99-2.15-1.48-3.74-1.48-1.08,0-2.04.24-2.87.71-.84.47-1.49,1.15-1.96,2.04s-.71,1.96-.71,3.22Z"/>
  </g>
  <g id="z0Gw7Y">
    <path class="st5" d="M88.65,525.02c-.08-.28-.71-.8-.96-1.3-1.16-2.36.05-3.39,1.01-5.31l-.2-31.09-.93-.3-27.32.06c-1.86.46-2.99,1.88-3.24,3.76v32.3c.19,2.1,1.65,3.91,3.81,4.21l27.68-.09c.29-.21.26-1.86.15-2.23ZM64.67,501.55s0-.08.01-.11c.08-.44.27-.93.66-1.18.06-.03.32-.16.36-.16h.01c.34,0,.61-.28.61-.62,0-1.26,0-2.49.42-3.7,1.85-5.26,8.78-6.29,11.99-1.72,1.17,1.67,1.33,3.45,1.31,5.41,0,.34.27.63.61.63.05,0,.32.14.38.18.4.27.59.82.64,1.28,0,.03,0,.06,0,.09-.12,3.36.29,6.95.11,10.34-.07,1.21-.64,1.51-.94,1.6-.1.03-.17.03-.21.04-.71.03-9.23,0-14.38-.02-.95,0-1.71-.8-1.7-1.77l.1-10.28ZM85.5,524.67h-23.86c-.62,0-1.77-1.34-1.91-2-.26-1.3.79-3.55,2.11-3.55h23.96c-.55,1.3-.82,2.53-.57,3.96.09.53.49,1.01.57,1.49.11.62-.27.1-.31.1ZM69.78,500.1h6.8c.34,0,.61-.28.6-.61v-1.85c-.01-.6-.53-1.69-.92-2.16-1.63-1.97-4.54-1.97-6.17,0-.39.47-.91,1.56-.91,2.16v1.85c-.01.34.26.61.6.61ZM72.91,503.57c-1.51.16-2.1,1.95-1.23,3.11.07.1.11.22.12.34.04.93-.12,2-.01,2.9.03.3.2.61.51.68.28.06,1.38.06,1.68.02.34-.05.53-.32.58-.66.13-.91-.06-2.03,0-2.98,0-.11.05-.22.12-.31,1.01-1.42.05-3.3-1.76-3.1Z"/>
  </g>
  <g id="tqhf0v.tif">
    <g>
      <path class="st0" d="M53.38,463.14c-.06,0-.52-.13-.61-.17-.49-.2-.85-.82-.87-1.34v-24.02c-.02-.52.7-1.35,1.19-1.35h1.44v19.47c0,.32.49,1.3.7,1.59,1.44,2,3.66,1.48,5.81,1.74,3,.36,6.36,1.51,8.5,3.68-4.02-.92-8.26-.89-12.33-.32-1.08.15-2.8.69-3.74.73-.03,0-.05,0-.08,0Z"/>
      <path class="st0" d="M93.91,437.4v24.51c-.27.68-.66,1.08-1.39,1.23-.05,0-.11,0-.16,0-1.15-.12-2.53-.55-3.74-.73-3.36-.48-6.95-.59-10.31-.08-.68.1-1.35.27-2.02.4,2.13-2.16,5.51-3.33,8.5-3.68,2.14-.25,4.37.26,5.81-1.74.21-.29.7-1.27.7-1.59v-19.47h1.44c.47,0,1.07.72,1.19,1.15Z"/>
      <path class="st0" d="M71.76,461.5c-2.94-2.95-7-4.46-11.12-4.84-.76-.07-1.58-.01-2.3-.08-.68-.07-1.23-.44-1.45-1.09-.11-7.78-.13-15.61,0-23.38.19-.6.74-1.05,1.38-1.08,3.56-.18,8.3,1.19,11.01,3.55.62.54,2.46,2.5,2.46,3.28v23.65Z"/>
      <path class="st0" d="M74.06,461.5v-23.65c0-.78,1.84-2.74,2.46-3.28,2.71-2.36,7.44-3.73,11.01-3.55.64.03,1.19.48,1.38,1.08.14,7.77.12,15.6,0,23.38-.22.65-.77,1.02-1.45,1.09-.72.07-1.54.01-2.3.08-4.11.38-8.18,1.88-11.12,4.84Z"/>
    </g>
  </g>
  <rect class="st4" x="874.41" y="264.53" width="33.83" height="5.72" transform="translate(1782.64 534.79) rotate(180)"/>
</svg>