<?xml version="1.0" encoding="UTF-8"?>
<svg id="Ebene_2" xmlns="http://www.w3.org/2000/svg" version="1.1" viewBox="0 0 560 560">
  <!-- Generator: Adobe Illustrator 29.1.0, SVG Export Plug-In . SVG Version: 2.1.0 Build 142)  -->
  <defs>
    <style>
      .st0 {
        fill: #f4e2e7;
      }
    </style>
  </defs>
  <g id="tqhf0v.tif">
    <g>
      <path class="st0" d="M106.34,81.08c52.05,1.29,108.1,16.01,143.75,56.32,4.61,5.21,16.94,20.43,16.94,26.95v287.71c-38.72-39.56-92.1-55.44-146.22-59.83-15.96-1.29-33.57,3.35-35.46-19.41l.04-274.3c.92-8.73,8.2-16.4,16.97-17.45,1.22-.15,2.72-.03,3.99,0Z"/>
      <path class="st0" d="M459.65,81.08c8.77,1.05,16.05,8.72,16.97,17.45l.04,274.3c-1.89,22.76-19.5,18.12-35.46,19.41-54.33,4.4-107.32,20.19-146.22,59.83V164.35c0-6.52,12.33-21.74,16.94-26.95,35.64-40.3,91.7-55.03,143.75-56.32,1.28-.03,2.77-.15,3.99,0Z"/>
      <path class="st0" d="M536.5,158.87v298.18c-3.21,7.82-8.45,14.32-17.62,14.58-10.9.31-34.27-6.67-46.89-8.46-40.89-5.79-84.55-7.13-125.45-.97-8.28,1.25-16.42,3.23-24.62,4.81,25.96-26.3,67.05-40.45,103.42-44.74,26.03-3.07,53.17,3.14,70.66-21.15,2.56-3.55,8.57-15.48,8.57-19.36v-236.85h17.47c5.7,0,12.98,8.72,14.47,13.96Z"/>
      <path class="st0" d="M57.44,144.91v236.85c0,3.89,6.01,15.81,8.57,19.36,17.53,24.35,44.59,17.98,70.66,21.15,36.82,4.48,76.42,18.3,103.42,44.26-8.27-.71-16.37-3.09-24.61-4.33-40.93-6.14-84.53-4.82-125.45.97-13.26,1.88-34.06,8.27-46.05,8.27-10.54,0-17.59-7.61-18.51-17.85V162.32c.38-5.51,3-11.19,7.69-14.26.87-.57,6.38-3.15,6.82-3.15h17.47Z"/>
    </g>
  </g>
</svg>