<?xml version="1.0" encoding="UTF-8"?>
<svg id="Ebene_2" xmlns="http://www.w3.org/2000/svg" version="1.1" viewBox="0 0 560 560">
  <!-- Generator: Adobe Illustrator 29.1.0, SVG Export Plug-In . SVG Version: 2.1.0 Build 142)  -->
  <defs>
    <style>
      .st0 {
        fill: #ff0075;
      }
    </style>
  </defs>
  <g id="z0Gw7Y">
    <path class="st0" d="M444.55,476.7c-.88-2.94-7.61-8.53-10.26-13.88-12.41-25.16.5-36.12,10.79-56.65l-2.08-331.5-9.94-3.2-291.32.64c-19.78,4.87-31.91,20.05-34.54,40.05l-.07,344.46c2.13,22.39,17.7,41.72,40.66,44.88l295.13-.97c3.14-2.19,2.81-19.87,1.62-23.82ZM188.85,226.51c.02-.39.04-.81.13-1.21.9-4.67,2.92-9.94,7.04-12.59.59-.37,3.4-1.73,3.79-1.73h.15c3.6,0,6.54-2.98,6.54-6.62,0-13.45-.09-26.56,4.47-39.5,19.76-56.13,93.66-67.05,127.87-18.29,12.5,17.83,14.23,36.76,13.97,57.71-.04,3.66,2.9,6.71,6.54,6.71.53,0,3.42,1.47,4.08,1.93,4.23,2.9,6.32,8.71,6.84,13.69,0,.33,0,.64.02.94-1.32,35.82,3.09,74.13,1.16,110.26-.7,12.85-6.82,16.1-9.98,17.11-1.03.33-1.86.37-2.22.39-7.55.29-98.46-.02-153.36-.22-10.16-.04-18.27-8.51-18.16-18.91l1.1-109.67ZM410.99,472.95h-254.43c-6.62,0-18.91-14.32-20.33-21.32-2.81-13.82,8.38-37.9,22.53-37.9h255.52c-5.9,13.86-8.71,27-6.08,42.27.99,5.66,5.18,10.77,6.1,15.86,1.18,6.6-2.9,1.1-3.31,1.1ZM243.31,210.98h72.56c3.58,0,6.47-2.94,6.45-6.56l-.09-19.7c-.04-6.45-5.59-18.07-9.74-23.07-17.37-21.03-48.43-21.03-65.8,0-4.12,5-9.69,16.63-9.74,23.07l-.09,19.7c-.02,3.62,2.87,6.56,6.45,6.56ZM276.71,248.05c-16.06,1.73-22.39,20.77-13.07,33.16.77,1.03,1.18,2.3,1.25,3.6.44,9.96-1.25,21.36-.13,30.95.37,3.25,2.15,6.51,5.48,7.22,2.96.66,14.74.61,17.92.18,3.6-.5,5.7-3.47,6.19-7,1.34-9.65-.61-21.65-.04-31.76.07-1.18.55-2.3,1.23-3.29,10.75-15.18.55-35.14-18.82-33.05Z"/>
  </g>
</svg>