<?xml version="1.0" encoding="UTF-8"?>
<svg id="Ebene_2" data-name="Ebene 2" xmlns="http://www.w3.org/2000/svg" viewBox="0 0 8.13 9.04">
  <defs>
    <style>
      .cls-1 {
        fill: #f15a24;
      }
    </style>
  </defs>
  <g id="Ebene_1-2" data-name="Ebene 1">
    <path class="cls-1" d="M1.69,5.17c-.02-.2-.02-.4-.02-.62,0-.19,0-.37.02-.55H0l.25-1.18h1.61c.16-.7.44-1.29.84-1.76.59-.71,1.34-1.07,2.26-1.07,1.22,0,2.11.48,2.68,1.43.31.54.48,1.07.5,1.61h-1.52c-.1-.41-.22-.73-.38-.94-.27-.38-.68-.56-1.22-.56s-.99.27-1.31.8c-.09.14-.16.31-.22.49h2.33l-.25,1.18h-2.31c-.01.18-.02.38-.02.58s0,.4.02.59h2.17l-.25,1.18h-1.66c.06.15.14.29.22.42.34.48.76.72,1.28.72s.94-.21,1.21-.62c.16-.22.29-.56.39-1h1.5c-.13.94-.47,1.71-1.01,2.3s-1.23.88-2.07.88c-1.04,0-1.86-.4-2.46-1.2-.31-.42-.54-.92-.69-1.5H0l.25-1.18h1.45Z"/>
  </g>
</svg>