<?xml version="1.0" encoding="UTF-8"?>
<svg id="Ebene_2" data-name="Ebene 2" xmlns="http://www.w3.org/2000/svg" viewBox="0 0 5.94 8.72">
  <defs>
    <style>
      .cls-1 {
        fill: #f15a24;
      }
    </style>
  </defs>
  <g id="Ebene_1-2" data-name="Ebene 1">
    <path class="cls-1" d="M3.84,5.54c-.05.15-.07.38-.08.69h-1.58c.02-.66.09-1.12.19-1.37s.36-.54.79-.87l.43-.33c.14-.11.25-.22.34-.35.16-.21.23-.45.23-.71,0-.3-.09-.57-.26-.81s-.49-.37-.95-.37-.77.15-.96.45-.28.61-.28.94H0C.05,1.7.44.91,1.17.45c.46-.3,1.03-.45,1.7-.45.88,0,1.62.21,2.2.63s.88,1.05.88,1.88c0,.51-.13.94-.38,1.28-.15.21-.43.48-.86.81l-.42.32c-.23.18-.38.38-.45.62ZM3.88,8.72h-1.75v-1.69h1.75v1.69Z"/>
  </g>
</svg>