<svg xmlns="http://www.w3.org/2000/svg" xmlns:xlink="http://www.w3.org/1999/xlink" width="80" height="80" viewBox="0 0 80 80">
  <defs>
    <filter id="water_7434935" x="9.999" y="16" width="59.963" height="54.719" filterUnits="userSpaceOnUse">
      <feOffset dy="3" input="SourceAlpha"/>
      <feGaussianBlur stdDeviation="3" result="blur"/>
      <feFlood flood-color="#003b80" flood-opacity="0.435"/>
      <feComposite operator="in" in2="blur"/>
      <feComposite in="SourceGraphic"/>
    </filter>
  </defs>
  <g id="bdsMarker" transform="translate(-12331 -16746)">
    <g id="Ellipse_2" data-name="Ellipse 2" transform="translate(12331 16746)" fill="rgba(75,205,253,0.7)" stroke="rgba(255,253,253,0.59)" stroke-width="0.5">
      <circle cx="40" cy="40" r="40" stroke="none"/>
      <circle cx="40" cy="40" r="39.75" fill="none"/>
    </g>
    <g transform="matrix(1, 0, 0, 1, 12331, 16746)" filter="url(#water_7434935)">
      <path id="water_7434935-2" data-name="water_7434935" d="M37.433,37.719a7.077,7.077,0,0,1-5.483-2.612,7.063,7.063,0,0,1-10.968,0,7.061,7.061,0,0,1-10.967,0,7.082,7.082,0,0,1-5.483,2.612A6.482,6.482,0,0,1,.305,36.168a.874.874,0,0,1,1.138-1.327,4.73,4.73,0,0,0,3.088,1.13,5.052,5.052,0,0,0,4.663-2.925.91.91,0,0,1,1.64,0A5.052,5.052,0,0,0,15.5,35.971a5.052,5.052,0,0,0,4.663-2.925.91.91,0,0,1,1.64,0,5.18,5.18,0,0,0,9.327,0,.877.877,0,0,1,.82-.572h0a.874.874,0,0,1,.82.572,5.052,5.052,0,0,0,4.663,2.925,4.722,4.722,0,0,0,3.086-1.13.874.874,0,1,1,1.14,1.325,6.474,6.474,0,0,1-4.226,1.553ZM41.66,25.675a.874.874,0,0,0-1.14-1.325,4.732,4.732,0,0,1-3.086,1.13,5.052,5.052,0,0,1-4.663-2.925.877.877,0,0,0-.82-.572h0a.874.874,0,0,0-.82.572,5.18,5.18,0,0,1-9.327,0,.91.91,0,0,0-1.64,0A5.052,5.052,0,0,1,15.5,25.479a5.052,5.052,0,0,1-4.663-2.925.91.91,0,0,0-1.64,0,5.052,5.052,0,0,1-4.663,2.925,4.73,4.73,0,0,1-3.088-1.13A.874.874,0,1,0,.307,25.677a6.482,6.482,0,0,0,4.226,1.551,7.079,7.079,0,0,0,5.483-2.612,7.061,7.061,0,0,0,10.967,0,7.063,7.063,0,0,0,10.969,0,7.077,7.077,0,0,0,5.483,2.612,6.474,6.474,0,0,0,4.226-1.553Zm0-10.491a.874.874,0,0,0-1.14-1.325,4.732,4.732,0,0,1-3.086,1.13,5.052,5.052,0,0,1-4.663-2.925.877.877,0,0,0-.82-.572h0a.874.874,0,0,0-.82.572,5.18,5.18,0,0,1-9.327,0,.91.91,0,0,0-1.64,0A5.052,5.052,0,0,1,15.5,14.988a5.052,5.052,0,0,1-4.663-2.925.91.91,0,0,0-1.64,0,5.052,5.052,0,0,1-4.663,2.925,4.73,4.73,0,0,1-3.088-1.13A.874.874,0,0,0,.307,15.186a6.482,6.482,0,0,0,4.226,1.551,7.079,7.079,0,0,0,5.483-2.612,7.061,7.061,0,0,0,10.967,0,7.063,7.063,0,0,0,10.969,0,7.077,7.077,0,0,0,5.483,2.612,6.474,6.474,0,0,0,4.226-1.553Zm0-10.491a.874.874,0,0,0-1.14-1.325A4.732,4.732,0,0,1,37.433,4.5,5.052,5.052,0,0,1,32.77,1.572.877.877,0,0,0,31.95,1h0a.874.874,0,0,0-.82.572A5.052,5.052,0,0,1,26.467,4.5,5.052,5.052,0,0,1,21.8,1.572a.91.91,0,0,0-1.64,0A5.052,5.052,0,0,1,15.5,4.5a5.052,5.052,0,0,1-4.663-2.925.91.91,0,0,0-1.64,0A5.052,5.052,0,0,1,4.533,4.5a4.73,4.73,0,0,1-3.088-1.13A.874.874,0,1,0,.307,4.695,6.482,6.482,0,0,0,4.533,6.246a7.079,7.079,0,0,0,5.483-2.612A7.082,7.082,0,0,0,15.5,6.246a7.079,7.079,0,0,0,5.483-2.612,7.083,7.083,0,0,0,5.485,2.612,7.077,7.077,0,0,0,5.483-2.612,7.077,7.077,0,0,0,5.483,2.612,6.474,6.474,0,0,0,4.226-1.553Z" transform="translate(19 21)" fill="#0273a5"/>
    </g>
  </g>
</svg>
