<svg xmlns="http://www.w3.org/2000/svg" xmlns:xlink="http://www.w3.org/1999/xlink" width="80" height="80" viewBox="0 0 80 80">
  <defs>
    <filter id="Pfad_6" x="41.041" y="11" width="23.043" height="23.043" filterUnits="userSpaceOnUse">
      <feOffset dy="3" input="SourceAlpha"/>
      <feGaussianBlur stdDeviation="3" result="blur"/>
      <feFlood flood-color="#290202" flood-opacity="0.384"/>
      <feComposite operator="in" in2="blur"/>
      <feComposite in="SourceGraphic"/>
    </filter>
    <filter id="Pfad_7" x="34.316" y="11.84" width="37.333" height="46.58" filterUnits="userSpaceOnUse">
      <feOffset dy="3" input="SourceAlpha"/>
      <feGaussianBlur stdDeviation="3" result="blur-2"/>
      <feFlood flood-color="#290202" flood-opacity="0.384"/>
      <feComposite operator="in" in2="blur-2"/>
      <feComposite in="SourceGraphic"/>
    </filter>
    <filter id="Pfad_8" x="17.505" y="26.971" width="23.043" height="23.043" filterUnits="userSpaceOnUse">
      <feOffset dy="3" input="SourceAlpha"/>
      <feGaussianBlur stdDeviation="3" result="blur-3"/>
      <feFlood flood-color="#290202" flood-opacity="0.384"/>
      <feComposite operator="in" in2="blur-3"/>
      <feComposite in="SourceGraphic"/>
    </filter>
    <filter id="Pfad_9" x="9.94" y="27.811" width="37.334" height="48.262" filterUnits="userSpaceOnUse">
      <feOffset dy="3" input="SourceAlpha"/>
      <feGaussianBlur stdDeviation="3" result="blur-4"/>
      <feFlood flood-color="#290202" flood-opacity="0.384"/>
      <feComposite operator="in" in2="blur-4"/>
      <feComposite in="SourceGraphic"/>
    </filter>
    <filter id="Pfad_10" x="8" y="12.422" width="25.242" height="25.242" filterUnits="userSpaceOnUse">
      <feOffset dy="3" input="SourceAlpha"/>
      <feGaussianBlur stdDeviation="3" result="blur-5"/>
      <feFlood flood-color="#290202" flood-opacity="0.384"/>
      <feComposite operator="in" in2="blur-5"/>
      <feComposite in="SourceGraphic"/>
    </filter>
    <filter id="Pfad_11" x="38.261" y="49.406" width="25.242" height="25.242" filterUnits="userSpaceOnUse">
      <feOffset dy="3" input="SourceAlpha"/>
      <feGaussianBlur stdDeviation="3" result="blur-6"/>
      <feFlood flood-color="#290202" flood-opacity="0.384"/>
      <feComposite operator="in" in2="blur-6"/>
      <feComposite in="SourceGraphic"/>
    </filter>
    <filter id="Pfad_12" x="24.723" y="17.377" width="20.378" height="20.377" filterUnits="userSpaceOnUse">
      <feOffset dy="3" input="SourceAlpha"/>
      <feGaussianBlur stdDeviation="3" result="blur-7"/>
      <feFlood flood-color="#290202" flood-opacity="0.384"/>
      <feComposite operator="in" in2="blur-7"/>
      <feComposite in="SourceGraphic"/>
    </filter>
    <filter id="Pfad_13" x="50.779" y="45.955" width="20.378" height="20.377" filterUnits="userSpaceOnUse">
      <feOffset dy="3" input="SourceAlpha"/>
      <feGaussianBlur stdDeviation="3" result="blur-8"/>
      <feFlood flood-color="#290202" flood-opacity="0.384"/>
      <feComposite operator="in" in2="blur-8"/>
      <feComposite in="SourceGraphic"/>
    </filter>
  </defs>
  <g id="clubMarker" transform="translate(-12191 -16709)">
    <g id="Ellipse_2" data-name="Ellipse 2" transform="translate(12191 16709)" fill="rgba(252,149,61,0.6)" stroke="rgba(255,255,255,0.64)" stroke-width="1">
      <circle cx="40" cy="40" r="40" stroke="none"/>
      <circle cx="40" cy="40" r="39.5" fill="none"/>
    </g>
    <g id="dance_1280434" transform="translate(12208 16726)">
      <g transform="matrix(1, 0, 0, 1, -17, -17)" filter="url(#Pfad_6)">
        <path id="Pfad_6-2" data-name="Pfad 6" d="M319.508,2.522A2.522,2.522,0,1,1,316.987,0,2.522,2.522,0,0,1,319.508,2.522Zm0,0" transform="translate(-264.42 17)" fill="#6f0800"/>
      </g>
      <g transform="matrix(1, 0, 0, 1, -17, -17)" filter="url(#Pfad_7)">
        <path id="Pfad_7-2" data-name="Pfad 7" d="M268.957,23.13a.841.841,0,0,0,.841-.841V16.406a.841.841,0,0,0-.841-.841H252.987a.841.841,0,0,1-.841-.841V8.841a.841.841,0,1,0-1.681,0v7.565a.841.841,0,0,0,.841.841h3.362a.841.841,0,0,1,.841.841V23.13a.841.841,0,0,1-.168.5l-3.026,4.049a.844.844,0,0,0-.168.5v8.391h1.681V29.048a2.51,2.51,0,0,1,.667-1.708l2.078-2.257a.84.84,0,0,1,.618-.272h3.362a.841.841,0,0,1,.841.841V36.579h1.681V18.087a.841.841,0,0,1,.841-.841h3.362a.841.841,0,0,1,.841.841v4.2A.841.841,0,0,0,268.957,23.13Zm0,0" transform="translate(-207.15 9.84)" fill="#6f0800"/>
      </g>
      <g transform="matrix(1, 0, 0, 1, -17, -17)" filter="url(#Pfad_8)">
        <path id="Pfad_8-2" data-name="Pfad 8" d="M95.508,154.522A2.522,2.522,0,1,1,92.987,152,2.522,2.522,0,0,1,95.508,154.522Zm0,0" transform="translate(-63.96 -119.03)" fill="#6f0800"/>
      </g>
      <g transform="matrix(1, 0, 0, 1, -17, -17)" filter="url(#Pfad_9)">
        <path id="Pfad_9-2" data-name="Pfad 9" d="M33.595,169.23h3.362a.841.841,0,0,0,.841-.841v-7.473a.911.911,0,0,0-.631-.9.8.8,0,0,0-.793.213.819.819,0,0,0-.257.6v5.884a.841.841,0,0,1-.841.841H20.987a2.522,2.522,0,0,0-2.522,2.522v4.2a.841.841,0,0,0,.841.841h5.884a.805.805,0,0,0,.582-.241.821.821,0,0,0,.258-.6.841.841,0,0,0-.841-.841h-4.2a.841.841,0,0,1-.841-.841v-1.681a1.681,1.681,0,0,1,1.681-1.681h2.522a.841.841,0,0,1,.841.841v1.681a2.522,2.522,0,0,1,0,5.043v2.379l1.649,5.8a.839.839,0,0,1-.079.646l-2.642,4.624h1.429l2.942-5.153L26.9,179.544a.84.84,0,0,1,.808-1.068h3.362a.84.84,0,0,1,.8.575l1.681,5.043a.82.82,0,0,1,.037.37l-.722,5.78h1.668l.728-5.824-2.478-9.085a.857.857,0,0,1-.029-.221v-5.043A.841.841,0,0,1,33.595,169.23Zm0,0" transform="translate(0.48 -126.17)" fill="#6f0800"/>
      </g>
      <g transform="matrix(1, 0, 0, 1, -17, -17)" filter="url(#Pfad_10)">
        <path id="Pfad_10-2" data-name="Pfad 10" d="M4.521,15.787l-.9-2.252-.9,2.252a.842.842,0,0,1-.469.469L0,17.156l2.252.9a.842.842,0,0,1,.469.469l.9,2.252.9-2.252a.842.842,0,0,1,.469-.469l2.252-.9-2.252-.9A.842.842,0,0,1,4.521,15.787Zm0,0" transform="translate(17 4.89)" fill="#6f0800"/>
      </g>
      <g transform="matrix(1, 0, 0, 1, -17, -17)" filter="url(#Pfad_11)">
        <path id="Pfad_11-2" data-name="Pfad 11" d="M292.521,367.787l-.9-2.252-.9,2.252a.842.842,0,0,1-.469.469l-2.252.9,2.252.9a.842.842,0,0,1,.469.469l.9,2.252.9-2.252a.841.841,0,0,1,.469-.469l2.252-.9-2.252-.9A.842.842,0,0,1,292.521,367.787Zm0,0" transform="translate(-240.74 -310.13)" fill="#6f0800"/>
      </g>
      <g transform="matrix(1, 0, 0, 1, -17, -17)" filter="url(#Pfad_12)">
        <path id="Pfad_12-2" data-name="Pfad 12" d="M159.152,61.872l1.189-1.189,1.189,1.189-1.189,1.189Zm0,0" transform="translate(-125.43 -37.31)" fill="#6f0800"/>
      </g>
      <g transform="matrix(1, 0, 0, 1, -17, -17)" filter="url(#Pfad_13)">
        <path id="Pfad_13-2" data-name="Pfad 13" d="M407.152,333.873l1.189-1.189,1.189,1.189-1.189,1.189Zm0,0" transform="translate(-347.37 -280.73)" fill="#6f0800"/>
      </g>
    </g>
  </g>
</svg>
