<svg id="Layer_1" enable-background="new 0 0 60 60" height="512" viewBox="0 0 60 60" width="512" xmlns="http://www.w3.org/2000/svg"><path d="m54.22 54v-5.57c0-.55-.45-1-1-1h-2.72v-19.6c1.14-.97 1.88-2.39 1.88-4v-3.72c0-.01-.01-.03-.01-.04 0-.1-.02-.21-.06-.31-.01-.02-.01-.04-.02-.05 0-.01 0-.01-.01-.02l-4.18-8.89v-4.8c0-.55-.45-1-1-1h-34.21c-.55 0-1 .45-1 1v4.79l-4.18 8.89c0 .01 0 .01-.01.02-.01.02-.01.04-.02.05-.04.1-.06.2-.06.31 0 .01-.01.03-.01.04v3.72c0 1.61.74 3.03 1.88 4v19.59h-2.71c-.55 0-1 .45-1 1v5.59c0 .55.45 1 1 1h46.44c.55 0 1-.45 1-1zm-12.39-30.17c0 1.81-1.47 3.28-3.28 3.28s-3.28-1.47-3.28-3.28v-2.72h6.55v2.72zm-17.11 0c0 1.81-1.47 3.28-3.28 3.28s-3.28-1.47-3.28-3.28v-2.72h6.55v2.72zm-8.55 0c0 1.81-1.47 3.28-3.28 3.28s-3.28-1.47-3.28-3.28v-2.72h6.55v2.72zm23.34-11.81.3 1.07 1.7 6.02h-6.32l-.67-7.09zm-7 0 .37 3.92.3 3.17h-6.35l.3-3.17.37-3.92zm-7.7 7.09h-6.32l1.7-6.02.3-1.07h4.99zm1.91 2h6.55v2.72c0 1.81-1.47 3.28-3.28 3.28s-3.28-1.47-3.28-3.28v-2.72zm17.11 0h6.55v2.72c0 1.81-1.47 3.28-3.28 3.28s-3.28-1.47-3.28-3.28v-2.72zm-.24-2-.3-1.07-1.7-6.02h4.89l3.34 7.09zm-29.7-12.11h32.21v3.02h-5.84-6.84-6.84-6.84-5.84v-3.02zm-.36 5.02h4.89l-1.7 6.02-.3 1.07h-6.22zm-2.03 16.88c.45.12.91.21 1.4.21 1.76 0 3.32-.88 4.28-2.21.96 1.33 2.51 2.21 4.28 2.21s3.32-.88 4.28-2.21c.96 1.33 2.51 2.21 4.28 2.21 1.76 0 3.32-.88 4.28-2.21.96 1.33 2.51 2.21 4.28 2.21 1.76 0 3.32-.88 4.28-2.21.96 1.33 2.51 2.21 4.28 2.21.49 0 .95-.09 1.4-.21v18.53h-2.57v-5.37-3.82c0-.55-.45-1-1-1h-5.36c-.55 0-1 .45-1 1v2.82h-6.31c-.55 0-1 .45-1 1v5.37h-3.16c.93-1.2 1.47-2.69 1.47-4.25 0-2.5-1.35-4.81-3.49-6.05v-5.4c0-.55-.45-1-1-1h-5.02c-.55 0-1 .45-1 1v5.41c-2.13 1.24-3.48 3.54-3.48 6.03 0 1.56.53 3.05 1.47 4.25h-5.6v-18.52zm32.44 12.15h-3.36v-1.82h3.36zm-4.36 2h4.36v4.37h-10.64v-4.37zm-21.95.13c0-1.93 1.14-3.71 2.9-4.52.35-.16.58-.52.58-.91v-5.02h3.02v5.01c0 .39.23.75.58.91 1.77.81 2.91 2.59 2.91 4.53 0 1.73-.92 3.34-2.42 4.25h-5.14c-1.51-.91-2.43-2.52-2.43-4.25zm34.59 9.82h-44.44v-3.57h2.71 9.29 5.67 6.85 12.64 4.57 2.71z"/></svg>