<svg xmlns="http://www.w3.org/2000/svg" xmlns:xlink="http://www.w3.org/1999/xlink" width="80" height="80" viewBox="0 0 80 80">
  <defs>
    <filter id="store_6070012" x="11" y="13" width="58.325" height="59.625" filterUnits="userSpaceOnUse">
      <feOffset dy="3" input="SourceAlpha"/>
      <feGaussianBlur stdDeviation="3" result="blur"/>
      <feFlood flood-color="#293e2a" flood-opacity="0.533"/>
      <feComposite operator="in" in2="blur"/>
      <feComposite in="SourceGraphic"/>
    </filter>
  </defs>
  <g id="trmMarker" transform="translate(-12074 -16709)">
    <g id="Ellipse_1" data-name="Ellipse 1" transform="translate(12074 16709)" fill="rgba(135,201,140,0.74)" stroke="rgba(255,255,255,0.62)" stroke-width="1">
      <circle cx="40" cy="40" r="40" stroke="none"/>
      <circle cx="40" cy="40" r="39.5" fill="none"/>
    </g>
    <g transform="matrix(1, 0, 0, 1, 12074, 16709)" filter="url(#store_6070012)">
      <path id="store_6070012-2" data-name="store_6070012" d="M46.105,45.792V41.155a.835.835,0,0,0-.832-.832H43.009V24.006a4.36,4.36,0,0,0,1.565-3.33v-3.1c0-.008-.008-.025-.008-.033a.71.71,0,0,0-.05-.258c-.008-.017-.008-.033-.017-.042s0-.008-.008-.017l-3.48-7.4v-4A.835.835,0,0,0,40.178,5H11.7a.835.835,0,0,0-.832.832V9.82l-3.48,7.4c0,.008,0,.008-.008.017s-.008.033-.017.042a.678.678,0,0,0-.05.258c0,.008-.008.025-.008.033v3.1A4.36,4.36,0,0,0,8.869,24V40.306H6.612a.835.835,0,0,0-.832.832v4.654a.835.835,0,0,0,.832.832H45.273A.835.835,0,0,0,46.105,45.792ZM35.791,20.676a2.731,2.731,0,1,1-5.461,0V18.411h5.453v2.264Zm-14.244,0a2.731,2.731,0,0,1-5.461,0V18.411h5.453v2.264Zm-7.118,0a2.731,2.731,0,0,1-5.461,0V18.411h5.453v2.264Zm19.43-9.832.25.891,1.415,5.012H30.263l-.558-5.9Zm-5.827,0,.308,3.263.25,2.639H23.3l.25-2.639.308-3.263Zm-6.41,5.9H16.361l1.415-5.012.25-.891H22.18Zm1.59,1.665h5.453v2.264a2.731,2.731,0,0,1-5.461,0V18.411Zm14.244,0h5.453v2.264a2.731,2.731,0,1,1-5.461,0V18.411Zm-.2-1.665-.25-.891-1.415-5.012h4.071l2.78,5.9ZM12.531,6.665H39.346V9.179H12.54V6.665Zm-.3,4.179H16.3l-1.415,5.012-.25.891H9.46ZM10.542,24.9a4.482,4.482,0,0,0,1.165.175,4.4,4.4,0,0,0,3.563-1.84,4.37,4.37,0,0,0,7.126,0,4.37,4.37,0,0,0,7.126,0,4.37,4.37,0,0,0,7.126,0,4.386,4.386,0,0,0,3.563,1.84,4.482,4.482,0,0,0,1.165-.175V40.322H39.237V32.672a.835.835,0,0,0-.832-.832H33.943a.835.835,0,0,0-.832.832v2.348H27.857a.835.835,0,0,0-.832.832v4.47H24.394a5.784,5.784,0,0,0-1.682-8.575v-4.5a.835.835,0,0,0-.832-.832H17.7a.835.835,0,0,0-.832.832v4.5a5.832,5.832,0,0,0-2.9,5.02A5.735,5.735,0,0,0,15.2,40.314H10.533V24.9ZM37.548,35.011h-2.8V33.5h2.8Zm-3.63,1.665h3.63v3.638H28.69V36.676Zm-18.273.108a4.162,4.162,0,0,1,2.414-3.763.837.837,0,0,0,.483-.758V28.085h2.514v4.171a.837.837,0,0,0,.483.758,4.131,4.131,0,0,1,.408,7.309H17.668a4.14,4.14,0,0,1-2.023-3.538Zm28.8,8.175h-37V41.987h37Z" transform="translate(14.22 14)" fill="#1c4d20"/>
    </g>
  </g>
</svg>
